<svg preserveAspectRatio="none" width="100%" height="100%" overflow="visible" style="display: block;" viewBox="0 0 24 24" fill="none" xmlns="http://www.w3.org/2000/svg">
<g id="Frame">
<path id="Vector" fill-rule="evenodd" clip-rule="evenodd" d="M7.73129 7.5C7.53238 7.5 7.34161 7.42098 7.20096 7.28033C7.06031 7.13968 6.98129 6.94891 6.98129 6.75C6.98129 6.55109 7.06031 6.36032 7.20096 6.21967C7.34161 6.07902 7.53238 6 7.73129 6H16.7313C16.9302 6 17.121 6.07902 17.2616 6.21967C17.4023 6.36032 17.4813 6.55109 17.4813 6.75V15.75C17.4813 15.9489 17.4023 16.1397 17.2616 16.2803C17.121 16.421 16.9302 16.5 16.7313 16.5C16.5324 16.5 16.3416 16.421 16.201 16.2803C16.0603 16.1397 15.9813 15.9489 15.9813 15.75V8.56L7.26129 17.28C7.11912 17.4125 6.93107 17.4846 6.73677 17.4812C6.54247 17.4777 6.35708 17.399 6.21967 17.2616C6.08226 17.1242 6.00355 16.9388 6.00012 16.7445C5.99669 16.5502 6.06881 16.3622 6.20129 16.22L14.9213 7.5H7.73129Z" fill="var(--fill-0, white)"/>
</g>
</svg>
