<svg preserveAspectRatio="none" width="100%" height="100%" overflow="visible" style="display: block;" viewBox="0 0 24 15.1918" fill="none" xmlns="http://www.w3.org/2000/svg">
<g id="Group">
<path id="Vector" d="M10.3755 8.38364C10.0106 7.92613 9.59286 7.576 9.12506 7.33916C9.53843 7.08761 9.89443 6.77871 10.1886 6.41094C10.6844 5.79015 10.9359 5.01192 10.9359 4.09691C10.9359 3.33343 10.7344 2.63174 10.3357 2.01242C9.93856 1.39309 9.34719 0.895865 8.57782 0.533982C7.82463 0.179453 6.91698 0 5.88282 0H0V15.1918H6.15349C7.16118 15.1918 8.06147 15.0079 8.8279 14.646C9.60904 14.2782 10.2181 13.7633 10.6358 13.1175C11.0551 12.4688 11.2684 11.7318 11.2684 10.9271C11.2684 9.98417 10.9683 9.12947 10.3755 8.38511V8.38364ZM7.25091 5.61507C6.88756 5.90928 6.3565 6.05934 5.67539 6.05934H3.13044V2.69354H5.67539C6.35356 2.69354 6.88167 2.84799 7.24503 3.15397C7.59367 3.44671 7.76285 3.85128 7.76285 4.38675C7.76285 4.92222 7.59514 5.33704 7.25091 5.61507ZM3.13044 8.75435H5.86222C6.57716 8.75435 7.12734 8.92792 7.54366 9.28539C7.94232 9.62815 8.1365 10.0827 8.1365 10.677C8.1365 11.2714 7.95703 11.6906 7.58632 12.0039C7.20237 12.329 6.65072 12.4938 5.9446 12.4938H3.13044V8.75435Z" fill="var(--fill-0, #DEDEDE)"/>
<path id="Vector_2" d="M23.2865 5.84353C22.8128 4.98737 22.142 4.31216 21.2918 3.83848C20.443 3.36479 19.4617 3.12499 18.379 3.12499C17.2963 3.12499 16.2416 3.37213 15.3722 3.85906C14.5013 4.34745 13.8158 5.04915 13.3362 5.94797C12.8566 6.84532 12.6139 7.89862 12.6139 9.07842C12.6139 10.2582 12.864 11.313 13.3583 12.2089C13.8526 13.1062 14.544 13.8123 15.4148 14.3066C16.2842 14.8009 17.2816 15.051 18.3805 15.051C19.7295 15.051 20.8754 14.7082 21.7875 14.033C22.6996 13.3578 23.338 12.4781 23.6867 11.4204L23.7117 11.3453H21.0431L21.027 11.3777C20.5136 12.4178 19.6236 12.9444 18.379 12.9444C17.5126 12.9444 16.7712 12.6693 16.1754 12.1294C15.5943 11.6013 15.2604 10.8952 15.1824 10.0287H23.9088L23.9162 9.9802C23.9721 9.63156 24 9.23728 24 8.8092C24 7.69707 23.7602 6.69969 23.2865 5.84353ZM16.2166 5.99653C16.7844 5.48901 17.4773 5.23305 18.2746 5.23305C19.1558 5.23305 19.9045 5.49343 20.5003 6.00831C21.0799 6.50847 21.3874 7.18073 21.4139 8.00453H15.2074C15.3251 7.16749 15.6649 6.49228 16.218 5.998L16.2166 5.99653Z" fill="var(--fill-0, #DEDEDE)"/>
<path id="Vector_3" d="M21.2129 0.348936H15.4006V1.72587H21.2129V0.348936Z" fill="var(--fill-0, #DEDEDE)"/>
</g>
</svg>
