<svg preserveAspectRatio="none" width="100%" height="100%" overflow="visible" style="display: block;" viewBox="0 0 30 30" fill="none" xmlns="http://www.w3.org/2000/svg">
<g id="Frame">
<path id="Vector" d="M18.9844 23.3594C20.0781 22.2656 20.625 20.9375 20.625 19.375C20.625 17.8125 20.0781 16.4844 18.9844 15.3906C17.8906 14.2969 16.5625 13.75 15 13.75C13.4375 13.75 12.1094 14.2969 11.0156 15.3906C9.92187 16.4844 9.375 17.8125 9.375 19.375C9.375 20.9375 9.92187 22.2656 11.0156 23.3594C12.1094 24.4531 13.4375 25 15 25C16.5625 25 17.8906 24.4531 18.9844 23.3594ZM11.3437 12.125C11.7604 11.8958 12.2031 11.7135 12.6719 11.5781C13.1406 11.4427 13.6146 11.3542 14.0937 11.3125L10.9375 5H7.8125L11.3437 12.125ZM8 23.5C7.64583 22.8958 7.36979 22.2448 7.17187 21.5469C6.97396 20.849 6.875 20.125 6.875 19.375C6.875 18.625 6.97396 17.901 7.17187 17.2031C7.36979 16.5052 7.64583 15.8542 8 15.25C7.125 15.5417 6.40625 16.0573 5.84375 16.7969C5.28125 17.5365 5 18.3958 5 19.375C5 20.3542 5.28125 21.2135 5.84375 21.9531C6.40625 22.6927 7.125 23.2083 8 23.5ZM22 23.5C22.875 23.2083 23.5937 22.6927 24.1562 21.9531C24.7187 21.2135 25 20.3542 25 19.375C25 18.3958 24.7187 17.5365 24.1562 16.7969C23.5937 16.0573 22.875 15.5417 22 15.25C22.3542 15.8542 22.6302 16.5052 22.8281 17.2031C23.026 17.901 23.125 18.625 23.125 19.375C23.125 20.125 23.026 20.849 22.8281 21.5469C22.6302 22.2448 22.3542 22.8958 22 23.5ZM12.6094 27.1406C11.849 26.901 11.1458 26.5729 10.5 26.1562C10.3125 26.1979 10.125 26.224 9.9375 26.2344C9.75 26.2448 9.55208 26.25 9.34375 26.25C7.44792 26.25 5.83333 25.5833 4.5 24.25C3.16667 22.9167 2.5 21.3021 2.5 19.4062C2.5 17.5937 3.10417 16.0417 4.3125 14.75C5.52083 13.4583 7.01042 12.7396 8.78125 12.5937L4.65625 4.3125C4.44792 3.89583 4.46354 3.48958 4.70312 3.09375C4.94271 2.69792 5.30208 2.5 5.78125 2.5H10.9687C11.4479 2.5 11.8802 2.625 12.2656 2.875C12.651 3.125 12.9583 3.45833 13.1875 3.875L15 7.5L16.8125 3.875C17.0417 3.45833 17.349 3.125 17.7344 2.875C18.1198 2.625 18.5521 2.5 19.0312 2.5H24.2187C24.6979 2.5 25.0573 2.69792 25.2969 3.09375C25.5365 3.48958 25.5521 3.89583 25.3437 4.3125L21.25 12.5312C23.0208 12.6979 24.5052 13.4271 25.7031 14.7187C26.901 16.0104 27.5 17.5625 27.5 19.375C27.5 21.2917 26.8333 22.9167 25.5 24.25C24.1667 25.5833 22.5417 26.25 20.625 26.25C20.4375 26.25 20.2448 26.2448 20.0469 26.2344C19.849 26.224 19.6562 26.1979 19.4687 26.1562C18.8229 26.5729 18.125 26.901 17.375 27.1406C16.625 27.3802 15.8333 27.5 15 27.5C14.1667 27.5 13.3698 27.3802 12.6094 27.1406ZM15 21.0625L13.4687 22.2187C13.3437 22.3229 13.2187 22.3281 13.0937 22.2344C12.9687 22.1406 12.9271 22.0208 12.9687 21.875L13.5625 19.9687L12.0312 18.875C11.9062 18.7708 11.8646 18.651 11.9062 18.5156C11.9479 18.3802 12.0521 18.3125 12.2187 18.3125H14.0937L14.6875 16.2812C14.7292 16.1354 14.8333 16.0625 15 16.0625C15.1667 16.0625 15.2708 16.1354 15.3125 16.2812L15.9062 18.3125H17.7812C17.9479 18.3125 18.0521 18.3802 18.0937 18.5156C18.1354 18.651 18.0937 18.7708 17.9687 18.875L16.4375 19.9687L17.0312 21.875C17.0729 22.0208 17.0312 22.1406 16.9062 22.2344C16.7812 22.3281 16.6562 22.3229 16.5312 22.2187L15 21.0625ZM18.6562 12.125L22.2187 5H19.0625L16.4062 10.3125L17 11.5C17.2917 11.5833 17.5729 11.6719 17.8437 11.7656C18.1146 11.8594 18.3854 11.9792 18.6562 12.125Z" fill="var(--fill-0, white)"/>
</g>
</svg>
