<svg preserveAspectRatio="none" width="100%" height="100%" overflow="visible" style="display: block;" viewBox="0 0 30 30" fill="none" xmlns="http://www.w3.org/2000/svg">
<g id="Frame">
<path id="Vector" d="M21.25 26.25C20.8958 26.25 20.599 26.1302 20.3594 25.8906C20.1198 25.651 20 25.3542 20 25V15.0625C20 14.7083 20.1198 14.4115 20.3594 14.1719C20.599 13.9323 20.8958 13.8125 21.25 13.8125H26.25C26.6042 13.8125 26.901 13.9323 27.1406 14.1719C27.3802 14.4115 27.5 14.7083 27.5 15.0625V25C27.5 25.3542 27.3802 25.651 27.1406 25.8906C26.901 26.1302 26.6042 26.25 26.25 26.25H21.25ZM21.25 23.75H26.25V16.3125H21.25V23.75ZM11.25 26.25C10.8958 26.25 10.599 26.1302 10.3594 25.8906C10.1198 25.651 10 25.3542 10 25C10 24.6458 10.1198 24.349 10.3594 24.1094C10.599 23.8698 10.8958 23.75 11.25 23.75H12.5V21.25H5C4.3125 21.25 3.72396 21.0052 3.23437 20.5156C2.74479 20.026 2.5 19.4375 2.5 18.75V6.25C2.5 5.5625 2.74479 4.97396 3.23437 4.48437C3.72396 3.99479 4.3125 3.75 5 3.75H22.5C23.1875 3.75 23.776 3.99479 24.2656 4.48437C24.7552 4.97396 25 5.5625 25 6.25V10.0625C25 10.4167 24.8802 10.7135 24.6406 10.9531C24.401 11.1927 24.1042 11.3125 23.75 11.3125C23.3958 11.3125 23.099 11.1927 22.8594 10.9531C22.6198 10.7135 22.5 10.4167 22.5 10.0625V6.25H5V18.75H16.25C16.6042 18.75 16.901 18.8698 17.1406 19.1094C17.3802 19.349 17.5 19.6458 17.5 20C17.5 20.3542 17.3802 20.651 17.1406 20.8906C16.901 21.1302 16.6042 21.25 16.25 21.25H15V23.75H16.25C16.6042 23.75 16.901 23.8698 17.1406 24.1094C17.3802 24.349 17.5 24.6458 17.5 25C17.5 25.3542 17.3802 25.651 17.1406 25.8906C16.901 26.1302 16.6042 26.25 16.25 26.25H11.25ZM13.75 15L15.875 16.5937C16 16.6979 16.1198 16.7083 16.2344 16.625C16.349 16.5417 16.3854 16.4271 16.3437 16.2812L15.5625 13.625L17.75 11.875C17.8542 11.7708 17.8854 11.651 17.8437 11.5156C17.8021 11.3802 17.7083 11.3125 17.5625 11.3125H14.875L14.0625 8.75C14.0208 8.60417 13.9167 8.53125 13.75 8.53125C13.5833 8.53125 13.4792 8.60417 13.4375 8.75L12.625 11.3125H9.9375C9.79167 11.3125 9.69792 11.3802 9.65625 11.5156C9.61458 11.651 9.64583 11.7708 9.75 11.875L11.9375 13.625L11.1562 16.2812C11.1146 16.4271 11.151 16.5417 11.2656 16.625C11.3802 16.7083 11.5 16.6979 11.625 16.5937L13.75 15Z" fill="var(--fill-0, white)"/>
</g>
</svg>
