<svg preserveAspectRatio="none" width="100%" height="100%" overflow="visible" style="display: block;" viewBox="0 0 30 30" fill="none" xmlns="http://www.w3.org/2000/svg">
<g id="Frame">
<path id="Vector" d="M13.6875 15.875L11.9375 14.125C11.6875 13.875 11.3958 13.75 11.0625 13.75C10.7292 13.75 10.4375 13.875 10.1875 14.125C9.9375 14.375 9.8125 14.6719 9.8125 15.0156C9.8125 15.3594 9.9375 15.6562 10.1875 15.9062L12.8125 18.5625C13.0625 18.8125 13.3542 18.9375 13.6875 18.9375C14.0208 18.9375 14.3125 18.8125 14.5625 18.5625L19.875 13.25C20.125 13 20.25 12.7031 20.25 12.3594C20.25 12.0156 20.125 11.7187 19.875 11.4687C19.625 11.2187 19.3281 11.0937 18.9844 11.0937C18.6406 11.0937 18.3438 11.2187 18.0938 11.4687L13.6875 15.875ZM14.5938 27.3437C14.4688 27.3229 14.3438 27.2917 14.2188 27.25C11.4062 26.3125 9.16667 24.5781 7.5 22.0469C5.83333 19.5156 5 16.7917 5 13.875V7.96875C5 7.44792 5.15104 6.97917 5.45312 6.5625C5.75521 6.14583 6.14583 5.84375 6.625 5.65625L14.125 2.84375C14.4167 2.73958 14.7083 2.6875 15 2.6875C15.2917 2.6875 15.5833 2.73958 15.875 2.84375L23.375 5.65625C23.8542 5.84375 24.2448 6.14583 24.5469 6.5625C24.849 6.97917 25 7.44792 25 7.96875V13.875C25 16.7917 24.1667 19.5156 22.5 22.0469C20.8333 24.5781 18.5938 26.3125 15.7812 27.25C15.6562 27.2917 15.5312 27.3229 15.4062 27.3437C15.2812 27.3646 15.1458 27.375 15 27.375C14.8542 27.375 14.7188 27.3646 14.5938 27.3437ZM15 24.875C17.1667 24.1875 18.9583 22.8125 20.375 20.75C21.7917 18.6875 22.5 16.3958 22.5 13.875V7.96875L15 5.15625L7.5 7.96875V13.875C7.5 16.3958 8.20833 18.6875 9.625 20.75C11.0417 22.8125 12.8333 24.1875 15 24.875Z" fill="var(--fill-0, white)"/>
</g>
</svg>
