<svg preserveAspectRatio="none" width="100%" height="100%" overflow="visible" style="display: block;" viewBox="0 0 74.9109 51.3686" fill="none" xmlns="http://www.w3.org/2000/svg">
<g id="Group">
<path id="Vector" d="M28.7995 0.533842C28.0604 0.827452 27.2434 1.1878 26.984 1.34795C25.1425 2.50906 23.9365 3.95043 23.0546 6.07246L22.6138 7.14014L22.5748 18.7112L22.549 30.2956H26.5042H30.4594V20.2994C30.4594 14.8008 30.4984 10.1163 30.5372 9.88942C30.5891 9.66252 30.8355 9.22213 31.1078 8.90183L31.6006 8.34128L41.4044 8.30125L51.2082 8.27456V4.13728V0H40.6782L30.1353 0.0133422L28.7995 0.533842Z" fill="var(--fill-0, white)"/>
<path id="Vector_2" d="M34.3619 11.7981C34.1803 11.9049 33.9988 12.0917 33.9469 12.2253C33.8951 12.372 33.8432 13.9602 33.8432 15.7753L33.8302 19.0851H39.0174H44.2046V20.2862C44.2046 21.394 44.1787 21.5274 43.8805 21.821L43.5692 22.1547H38.6933H33.8302V26.2252V30.2958L39.575 30.2557C45.6181 30.2157 45.7089 30.2024 47.1225 29.5484C49.0676 28.6409 50.7146 26.986 51.3111 25.3578C51.9336 23.6628 51.9077 23.9964 51.9595 17.6437L51.9984 11.6113H43.3358C36.2942 11.6247 34.6083 11.6514 34.3619 11.7981Z" fill="var(--fill-0, white)"/>
<path id="Vector_3" d="M48.6533 39.9183C48.1995 40.5189 48.2125 40.5723 48.783 41.293L49.0813 41.68L49.3536 41.3864C49.4963 41.2262 49.6908 40.9594 49.7816 40.7725C49.9372 40.4789 49.9113 40.3855 49.587 39.905C49.3925 39.6113 49.1851 39.3711 49.1461 39.3711C49.0943 39.3711 48.8738 39.6247 48.6533 39.9183Z" fill="var(--fill-0, white)"/>
<path id="Vector_4" d="M3.83532 39.9046C3.42035 40.0381 2.84975 40.3183 2.56446 40.5185C1.85121 41.0257 0.943454 42.0934 0.748932 42.6406C0.65816 42.8942 0.541442 43.1077 0.489576 43.1077C0.45067 43.1077 0.295054 43.6282 0.165375 44.2554C-0.0291466 45.2164 -0.0421153 45.5767 0.0745944 46.3641C0.45067 49.1001 2.55149 51.0886 5.31367 51.3422C6.01393 51.4089 6.37704 51.3556 7.16814 51.102C7.71275 50.9284 8.15364 50.7417 8.15364 50.6883C8.15364 50.6215 8.21853 50.5815 8.2963 50.5815C8.37417 50.5815 8.65941 50.4214 8.94474 50.2078L9.45051 49.8475V47.3384V44.8427H7.33667H5.2359L5.06728 45.3766C4.9895 45.6702 4.91164 45.9638 4.91164 46.0438C4.91164 46.1106 5.57305 46.1906 6.50673 46.204L8.08884 46.244L8.12777 47.5653C8.16662 49.0333 8.19257 48.9799 7.09027 49.5805C6.62344 49.8341 6.27331 49.9142 5.63785 49.9142C3.99094 49.9142 2.57742 48.9799 1.86418 47.4318C1.53998 46.7378 1.51404 46.5643 1.56592 45.4566C1.64373 43.5481 2.39587 42.2135 3.78345 41.4928C4.88577 40.9056 6.72717 41.0924 7.85542 41.9066L8.40004 42.2936L8.81505 41.7464L9.22998 41.2125L8.91878 40.959C8.04991 40.2783 6.1566 39.6243 5.13216 39.651C4.83386 39.651 4.2503 39.7712 3.83532 39.9046Z" fill="var(--fill-0, white)"/>
<path id="Vector_5" d="M37.7596 39.8109L37.202 39.9577V41.8128V43.6813L36.8519 43.3076C36.2813 42.7204 35.4902 42.4401 34.4398 42.4401C33.7655 42.4401 33.3765 42.5069 33.0523 42.6937C32.8059 42.8405 32.4687 43.014 32.3261 43.094C31.9759 43.2542 31.3794 44.0016 30.9904 44.749C30.5883 45.5097 30.4976 47.4048 30.8218 48.3524C31.4961 50.301 33.2598 51.3553 35.205 50.9816C35.6589 50.8881 36.0349 50.7681 36.0349 50.7014C36.0349 50.6346 36.1127 50.5812 36.2035 50.5812C36.3072 50.5812 36.5148 50.4344 36.6833 50.2475C37.1501 49.7404 37.3317 49.8205 37.3317 50.5278V51.1417L37.8893 51.0483C38.1876 50.995 38.447 50.9416 38.447 50.9283C38.46 50.9283 38.4858 48.3924 38.5118 45.3229C38.5507 41.6527 38.5248 39.7175 38.434 39.7042C38.3691 39.6909 38.0579 39.7442 37.7596 39.8109ZM36.3461 44.5621C37.3836 45.5631 37.6559 47.1112 37.0075 48.259C36.3721 49.3801 35.0104 49.9806 33.8563 49.647C33.2727 49.4869 32.4039 48.8062 32.4039 48.4993C32.4039 48.3924 32.3649 48.3124 32.3001 48.3124C32.1445 48.3124 31.8851 47.2981 31.8851 46.6575C31.8851 44.789 33.6359 43.3476 35.2568 43.8815C35.581 43.9882 36.0609 44.2952 36.3461 44.5621Z" fill="var(--fill-0, white)"/>
<path id="Vector_6" d="M40.8341 45.5234V51.1554L41.3269 51.0619C41.5862 51.0219 41.9363 50.9819 42.1049 50.9819H42.3903V48.4461V45.9104H44.0112H45.6323V45.2431V44.5758H44.0112H42.3903V42.9876C42.3903 41.5062 42.4032 41.386 42.6496 41.306C42.7922 41.2526 43.713 41.2393 44.6985 41.2526L46.4752 41.2793L46.4492 40.8923C46.3715 39.8245 46.6049 39.9047 43.5574 39.9047H40.8341V45.5234Z" fill="var(--fill-0, white)"/>
<path id="Vector_7" d="M71.3998 42.4001C71.1923 42.4401 70.7773 42.7071 70.4661 43.014C68.9488 44.5221 69.6232 46.6841 71.7629 47.178C71.9833 47.2313 72.4242 47.3915 72.7614 47.5383C73.2931 47.7652 73.3838 47.8719 73.4617 48.2723C73.5784 48.8862 73.3709 49.2867 72.8133 49.5669C72.2427 49.8472 71.6202 49.7537 70.9718 49.3C70.7254 49.1265 70.479 48.9797 70.4272 48.9797C70.2845 48.9797 69.6232 49.647 69.6232 49.7804C69.6232 49.8606 69.8954 50.1141 70.2456 50.3677C71.3738 51.2218 73.1634 51.2352 74.0193 50.421C75.4717 49.0197 75.1086 47.0979 73.2283 46.2037C72.891 46.0435 72.4631 45.9101 72.2945 45.9101C72.113 45.9101 71.9314 45.8434 71.8926 45.7766C71.8536 45.6965 71.711 45.6432 71.5813 45.6432C71.4516 45.6432 71.2441 45.4429 71.1015 45.1761C70.868 44.7223 70.868 44.6956 71.1015 44.2419C71.2441 43.9749 71.4905 43.7347 71.6591 43.6947C72.1648 43.5612 72.9559 43.7213 73.2671 44.0283C73.6562 44.402 73.7729 44.3753 74.2009 43.8414L74.551 43.401L74.0323 42.974C73.3061 42.3868 72.5539 42.2266 71.3998 42.4001Z" fill="var(--fill-0, white)"/>
<path id="Vector_8" d="M13.6527 42.7738C12.2911 43.4677 11.3703 44.9491 11.2796 46.564C11.2148 48.1122 11.6686 49.1798 12.8747 50.2743C13.6657 50.9949 15.0274 51.3552 16.0907 51.1283C17.0503 50.9149 17.7118 50.5411 18.3731 49.8071C19.216 48.8729 19.4754 48.1922 19.4884 46.8443C19.5013 45.8833 19.4494 45.5898 19.1642 44.9759C18.7232 44.0283 17.9711 43.2275 17.0633 42.7871C16.0518 42.2933 14.5865 42.2933 13.6527 42.7738ZM16.402 44.055C17.9063 44.789 18.5547 46.6041 17.8673 48.1122C17.7118 48.4458 17.5431 48.7128 17.4912 48.7128C17.4264 48.7128 17.3357 48.8328 17.2967 48.9796C17.2449 49.1265 17.1541 49.2199 17.0893 49.1798C17.0244 49.1265 16.9726 49.1531 16.9726 49.2332C16.9726 49.2999 16.7132 49.4601 16.389 49.5802C15.2089 50.0473 13.8473 49.5668 13.1211 48.4191C12.7969 47.9253 12.758 47.7384 12.758 46.7642C12.758 45.6832 12.758 45.6698 13.2896 45.0292C13.8861 44.2818 14.742 43.7747 15.4034 43.7747C15.6498 43.7747 16.1037 43.8948 16.402 44.055Z" fill="var(--fill-0, white)"/>
<path id="Vector_9" d="M23.4952 42.7741C22.0038 43.5482 21.1739 45.0429 21.1998 46.9781C21.2128 48.286 21.6278 49.2336 22.6003 50.1544C23.1969 50.715 23.4304 50.8351 24.2991 51.0486C25.3885 51.3022 26.0758 51.2355 27.0743 50.755C27.6838 50.4481 28.5397 49.5806 28.8639 48.9133C30.0829 46.4576 29.0973 43.695 26.6334 42.6273C26.3741 42.5205 25.7646 42.4405 25.168 42.4405C24.3511 42.4405 24.0269 42.5072 23.4952 42.7741ZM26.2444 44.0287C27.7487 44.7493 28.423 46.6044 27.7487 48.1125C26.9316 49.9276 24.4418 50.3146 23.2617 48.8065C22.7949 48.2059 22.743 48.1259 22.6912 47.9123C22.3799 46.6711 22.4058 46.3375 22.8857 45.3766C23.56 43.9885 24.9865 43.4281 26.2444 44.0287Z" fill="var(--fill-0, white)"/>
<path id="Vector_10" d="M55.7074 42.6007C54.7736 42.7209 54.3068 43.0012 53.9177 43.6551C53.4768 44.3891 53.3082 44.3224 53.2564 43.4015L53.2175 42.6274L52.6728 42.7476L52.1152 42.8543V47.0584V51.2757L52.5432 51.1823C53.4898 50.9821 53.412 51.1823 53.412 48.7933C53.412 46.698 53.4768 46.2176 53.8789 45.2833C54.1253 44.7094 54.7866 44.2023 55.435 44.1089C55.9149 44.0288 55.9667 43.9621 56.239 43.2815C56.4076 42.8677 56.5244 42.534 56.4984 42.5207C56.4724 42.5073 56.1223 42.534 55.7074 42.6007Z" fill="var(--fill-0, white)"/>
<path id="Vector_11" d="M60.2974 42.6537C60.051 42.7604 59.7268 42.9873 59.5841 43.1741C59.2081 43.6279 59.0136 43.5879 58.9617 43.0674L58.9227 42.6269L58.3781 42.7471L57.8204 42.8538V47.0579C57.8204 51.0083 57.8334 51.2618 58.0539 51.1951C58.1707 51.1684 58.4559 51.1017 58.6893 51.0483L59.0914 50.9682L59.1432 48.0722C59.2081 44.7356 59.2729 44.4687 60.1158 44.0149C60.6345 43.7347 60.6994 43.7213 61.2181 43.9082C62.1647 44.2419 62.2296 44.5087 62.2296 48.1255V51.2085L62.865 51.0751L63.5134 50.9549L63.5524 47.9788C63.5912 45.2161 63.6172 44.9625 63.8636 44.6155C64.2916 44.0149 64.9659 43.7347 65.5624 43.8949C66.4702 44.1484 66.522 44.3886 66.509 47.9788C66.4961 51.4888 66.4183 51.2085 67.4557 51.0349L67.9355 50.9415V47.8586C67.9225 44.9892 67.9096 44.7223 67.6373 44.0416C66.937 42.2666 64.7972 41.9062 63.4486 43.3477C63.2152 43.6012 63.0077 43.748 63.0077 43.6813C63.0077 43.6012 62.8002 43.321 62.5538 43.0674C61.9313 42.4268 61.1273 42.2799 60.2974 42.6537Z" fill="var(--fill-0, white)"/>
<path id="Vector_12" d="M48.6539 42.801L48.3556 42.8543V46.9916V51.1289L48.9781 51.0355C49.3152 50.9954 49.6006 50.9421 49.6135 50.9287C49.6265 50.9154 49.6525 49.0736 49.6654 46.8448L49.6783 42.7743L49.3152 42.7609C49.1078 42.7475 48.8095 42.7609 48.6539 42.801Z" fill="var(--fill-0, white)"/>
</g>
</svg>
