<svg preserveAspectRatio="none" width="100%" height="100%" overflow="visible" style="display: block;" viewBox="0 0 1240.01 180.458" fill="none" xmlns="http://www.w3.org/2000/svg">
<g id="Logo">
<g id="Vector">
<path d="M1236.9 82.5195L1203.11 84.6482C1202.46 81.688 1201.3 79.077 1199.34 76.782C1197.37 74.487 1194.91 72.5247 1191.79 71.2109C1188.68 69.7308 1185.07 69.0822 1180.79 69.0822C1175.06 69.0822 1170.3 70.2297 1166.36 72.691C1162.42 74.986 1160.45 78.2622 1160.45 82.2036C1160.45 85.3134 1161.77 88.1074 1164.23 90.2361C1166.86 92.3647 1171.11 94.1774 1177.35 95.4912L1201.46 100.414C1214.42 103.041 1224.1 107.299 1230.5 113.203C1236.9 119.106 1240.01 126.823 1240.01 136.502C1240.01 145.199 1237.39 152.899 1232.3 159.468C1227.21 166.037 1220.16 171.276 1211.29 174.885C1202.43 178.493 1192.27 180.306 1180.61 180.306C1162.9 180.306 1148.95 176.697 1138.45 169.314C1128.12 161.93 1121.89 151.768 1120.08 139.129L1156.5 137.167C1157.64 142.589 1160.27 146.68 1164.53 149.473C1168.79 152.267 1174.21 153.581 1180.78 153.581C1187.35 153.581 1192.42 152.267 1196.36 149.806C1200.3 147.178 1202.43 144.069 1202.43 139.961C1202.43 136.685 1200.95 133.891 1198.17 131.762C1195.38 129.633 1191.12 127.821 1185.38 126.673L1162.25 122.083C1149.3 119.456 1139.62 115.032 1133.21 108.463C1126.98 102.06 1123.7 93.8614 1123.7 83.8499C1123.7 75.3186 1126 67.9347 1130.59 61.6983C1135.34 55.4619 1141.91 50.7056 1150.28 47.4294C1158.81 44.1532 1168.65 42.3405 1180.13 42.3405C1197.02 42.3405 1210.15 45.9493 1219.82 53.0006C1229.5 60.5508 1235.24 70.2297 1236.89 82.5362L1236.9 82.5195Z" fill="white"/>
<path d="M1050.36 180.458C1036.57 180.458 1024.77 177.664 1014.92 172.093C1005.08 166.521 997.525 158.472 992.12 148.311C986.865 137.984 984.088 125.843 984.088 111.724C984.088 97.605 986.715 85.9638 992.12 75.6363C997.375 65.3089 1004.91 57.2597 1014.59 51.356C1024.27 45.6185 1035.74 42.6583 1048.71 42.6583C1057.58 42.6583 1065.78 44.1384 1073.33 46.9156C1081.04 49.7095 1087.6 53.8006 1093.33 59.5547C1099.07 65.1259 1103.51 72.1938 1106.62 80.7086C1109.73 89.0737 1111.38 99.0852 1111.38 110.394V120.572H998.839V97.605H1076.6C1076.6 92.3498 1075.46 87.5935 1073.16 83.5025C1070.87 79.3948 1067.59 76.1186 1063.48 73.8236C1059.37 71.5286 1054.78 70.2148 1049.38 70.2148C1043.97 70.2148 1038.72 71.5286 1034.44 74.1562C1030.19 76.7838 1026.73 80.2263 1024.43 84.4837C1021.97 88.741 1020.82 93.514 1020.66 98.7526V120.572C1020.66 127.141 1021.81 132.878 1024.27 137.634C1026.73 142.391 1030.17 146.166 1034.76 148.793C1039.35 151.421 1044.61 152.735 1050.84 152.735C1054.95 152.735 1058.71 152.086 1062.17 150.922C1065.61 149.775 1068.57 147.962 1070.87 145.667C1073.33 143.372 1075.12 140.578 1076.44 137.135L1110.56 139.43C1108.75 147.629 1105.31 154.847 1099.9 160.917C1094.65 166.987 1087.76 171.743 1079.23 175.186C1071.03 178.628 1061.35 180.441 1050.36 180.441V180.458Z" fill="white"/>
<path d="M776.602 177.832V44.4725H811.875V67.938H813.521C816.315 60.0718 820.905 54.0017 827.458 49.3951C833.86 44.8051 841.727 42.6764 850.757 42.6764C859.787 42.6764 867.653 44.9714 874.056 49.5614C880.459 54.1514 884.716 60.2215 886.845 67.938H888.159C890.952 60.2215 895.875 54.1514 902.926 49.5614C910.144 44.9714 918.509 42.6764 928.354 42.6764C940.827 42.6764 950.822 46.6178 958.705 54.484C966.571 62.3502 970.346 73.5091 970.346 87.9443V177.516H933.443V95.1619C933.443 87.778 931.481 82.2068 927.539 78.4317C923.598 74.6566 918.675 72.8605 912.772 72.8605C906.053 72.8605 900.798 74.9892 897.023 79.2633C893.247 83.5206 891.451 89.1084 891.451 95.9934V177.366H855.696V94.1973C855.696 87.6283 853.883 82.3897 850.125 78.6146C846.35 74.6732 841.594 72.8772 835.523 72.8772C831.416 72.8772 827.657 73.8584 824.364 75.9871C821.088 77.9495 818.627 80.9097 816.648 84.5185C814.686 88.1273 813.854 92.3846 813.854 97.3072V177.366H776.619V177.865L776.602 177.832Z" fill="white"/>
<path d="M752.973 67.439C749.864 61.7015 745.589 56.9453 740.334 53.3365C734.913 49.7277 729.009 47.1001 722.124 45.304C715.239 43.4913 708.188 42.6764 700.804 42.6764C690.31 42.6764 680.798 44.3228 672.748 47.599C664.716 50.8752 658.147 55.4652 653.058 61.3856C647.969 67.2894 644.693 74.3407 642.88 82.3898L677.006 85.1837C678.32 80.76 680.947 77.1512 684.872 74.191C688.797 71.2307 694.052 69.7673 700.787 69.7673C707.523 69.7673 711.946 71.4137 715.389 74.3573C718.831 77.4671 720.644 81.5749 720.644 87.146V87.645C720.644 90.4389 719.496 92.5675 717.368 94.0476C715.239 95.5277 711.797 96.5089 707.04 97.3238C702.284 97.9724 696.048 98.8039 688.331 99.6188C681.762 100.267 675.542 101.265 669.472 102.895C663.568 104.375 658.313 106.67 653.557 109.78C648.801 112.89 645.192 116.831 642.398 121.92C639.604 127.009 638.29 133.245 638.29 140.613C638.29 149.31 640.253 156.694 644.028 162.598C647.803 168.502 653.058 172.926 659.777 175.886C666.495 178.846 674.046 180.309 682.577 180.309C689.146 180.309 695.05 179.495 699.972 177.516C705.061 175.703 709.319 173.258 712.927 170.132C716.37 167.022 719.33 163.247 721.459 159.139H722.44V177.682H757.547V87.7946C757.547 79.9285 756.067 73.1932 752.957 67.4557L752.973 67.439ZM720.993 130.102C720.993 134.859 719.679 138.966 717.384 142.741C714.923 146.516 711.647 149.46 707.539 151.605C703.282 153.734 698.509 154.882 693.104 154.882C687.699 154.882 682.777 153.568 679.317 150.94C675.709 148.313 673.896 144.537 673.896 139.465C673.896 136.023 674.711 133.063 676.523 130.768C678.336 128.473 680.781 126.51 684.074 125.196C687.184 123.716 691.125 122.735 695.399 122.086C697.361 121.754 699.656 121.438 702.118 121.105C704.579 120.606 707.04 120.29 709.502 119.791C711.963 119.293 714.258 118.81 716.22 118.145C718.183 117.497 719.829 116.831 720.977 116.016V130.119L720.993 130.102Z" fill="white"/>
<path d="M558.259 44.4725H594.014V67.7717H595.328C597.79 59.5729 601.897 53.1702 607.635 49.0791C613.372 44.8217 619.941 42.6764 627.491 42.6764C629.304 42.6764 631.266 42.8427 633.561 43.009C635.856 43.1753 637.669 43.508 639.133 43.9902V76.8019C637.32 76.303 635.025 75.8207 631.915 75.4881C628.805 75.1555 626.011 74.8396 623.55 74.8396C618.128 74.8396 613.223 75.987 608.949 78.4483C604.691 80.7433 601.398 84.0195 598.937 88.1272C596.476 92.2349 595.328 97.1575 595.328 102.562V178.014H558.259V44.4725Z" fill="white"/>
<path d="M523.465 31.0348L545.467 0.0690303H427.791V177.798H465.375V104.375H515.666L537.668 73.409H465.375V31.0514H523.482L523.465 31.0348Z" fill="white"/>
<path d="M351.575 180.458C337.789 180.458 325.981 177.664 316.136 172.093C306.291 166.521 298.74 158.472 293.336 148.311C288.08 137.984 285.303 125.843 285.303 111.724C285.303 97.605 287.931 85.9638 293.336 75.6363C298.591 65.3089 306.124 57.2597 315.803 51.356C325.482 45.6185 336.957 42.6583 349.929 42.6583C358.793 42.6583 366.992 44.1384 374.542 46.9156C382.258 49.7095 388.811 53.8006 394.548 59.5547C400.286 65.1259 404.726 72.1938 407.836 80.7086C410.946 89.0737 412.592 99.0852 412.592 110.394V120.572H300.054V97.605H377.818C377.818 92.3498 376.67 87.5935 374.375 83.5025C372.08 79.4114 368.804 76.1186 364.697 73.8236C360.589 71.5286 355.999 70.2148 350.594 70.2148C345.189 70.2148 339.934 71.5286 335.66 74.1562C331.403 76.7838 327.943 80.2263 325.648 84.4837C323.187 88.741 322.04 93.514 321.873 98.7526V120.572C321.873 127.141 323.021 132.878 325.482 137.634C327.943 142.391 331.552 146.166 335.976 148.793C340.566 151.421 345.821 152.735 352.057 152.735C356.165 152.735 359.924 152.086 363.383 150.922C366.825 149.775 369.785 147.962 372.08 145.667C374.542 143.372 376.338 140.578 377.652 137.135L411.777 139.43C409.964 147.629 406.522 154.847 401.117 160.917C395.862 166.987 388.977 171.743 380.445 175.186C372.413 178.628 362.568 180.441 351.575 180.441V180.458Z" fill="white"/>
<path d="M215.406 180.458C201.619 180.458 189.812 177.664 179.967 172.093C170.121 166.521 162.571 158.472 157.166 148.311C151.911 137.984 149.134 125.843 149.134 111.724C149.134 97.605 151.761 85.9638 157.166 75.6363C162.588 65.3089 169.955 57.2597 179.634 51.356C189.313 45.6185 200.788 42.6583 213.759 42.6583C222.623 42.6583 230.822 44.1384 238.372 46.9156C246.089 49.7095 252.641 53.8006 258.379 59.5547C264.116 65.1259 268.556 72.1938 271.666 80.7086C274.776 89.0737 276.423 99.0852 276.423 110.394V120.572H163.885V97.605H241.649C241.649 92.3498 240.501 87.5935 238.206 83.5025C235.911 79.4114 232.635 76.1186 228.527 73.8236C224.419 71.5286 219.829 70.2148 214.425 70.2148C209.02 70.2148 203.765 71.5286 199.491 74.1562C195.233 76.7838 191.774 80.2263 189.479 84.4837C187.018 88.741 185.87 93.514 185.704 98.7526V120.572C185.704 127.141 186.851 132.878 189.313 137.634C191.774 142.391 195.383 146.166 199.807 148.793C204.397 151.421 209.652 152.735 215.888 152.735C219.996 152.735 223.754 152.086 227.213 150.922C230.656 149.775 233.616 147.962 235.911 145.667C238.372 143.372 240.168 140.578 241.482 137.135L275.608 139.43C273.795 147.629 270.353 154.847 264.948 160.917C259.693 166.987 252.808 171.743 244.276 175.186C236.077 178.628 226.399 180.441 215.406 180.441V180.458Z" fill="white"/>
<path d="M0.166314 177.829V155.511L88.906 30.999H0V1.10997e-05H135.987V22.318L47.2469 146.83H136.153V177.829H0.166314Z" fill="white"/>
</g>
</g>
</svg>
