<svg xmlns="http://www.w3.org/2000/svg" width="15" height="12" viewBox="0 0 15 12" fill="none">
<path fill-rule="evenodd" clip-rule="evenodd" d="M8.51667 0.182783C8.63385 0.0657412 8.79271 0 8.95833 0C9.12396 0 9.28281 0.0657412 9.4 0.182783L14.4 5.18278C14.517 5.29997 14.5828 5.45882 14.5828 5.62445C14.5828 5.79008 14.517 5.94893 14.4 6.06612L9.4 11.0661C9.34278 11.1275 9.27378 11.1768 9.19711 11.2109C9.12045 11.2451 9.03769 11.2635 8.95377 11.2649C8.86985 11.2664 8.78649 11.251 8.70867 11.2196C8.63084 11.1881 8.56015 11.1413 8.5008 11.082C8.44145 11.0226 8.39467 10.9519 8.36323 10.8741C8.3318 10.7963 8.31636 10.7129 8.31784 10.629C8.31932 10.5451 8.33769 10.4623 8.37185 10.3857C8.40601 10.309 8.45526 10.24 8.51667 10.1828L12.45 6.24945H0.625C0.45924 6.24945 0.300268 6.1836 0.183058 6.06639C0.0658479 5.94918 0 5.79021 0 5.62445C0 5.45869 0.0658479 5.29972 0.183058 5.18251C0.300268 5.0653 0.45924 4.99945 0.625 4.99945H12.45L8.51667 1.06612C8.39962 0.948929 8.33388 0.790076 8.33388 0.62445C8.33388 0.458824 8.39962 0.299971 8.51667 0.182783Z" fill="#0B0B0B"/>
</svg>

