<svg preserveAspectRatio="none" width="100%" height="100%" overflow="visible" style="display: block;" viewBox="0 0 24 22.9793" fill="none" xmlns="http://www.w3.org/2000/svg">
<g id="Group">
<path id="Vector" d="M17.9939 0H6.00611C2.69427 0 0 2.69427 0 6.00611V16.9732C0 20.285 2.69427 22.9793 6.00611 22.9793H17.9939C21.3057 22.9793 24 20.285 24 16.9732V6.00611C24 2.69427 21.3057 0 17.9939 0ZM2.11877 6.00611C2.11877 3.86291 3.86291 2.11878 6.00611 2.11878H17.9939C20.1371 2.11878 21.8812 3.86291 21.8812 6.00611V16.9732C21.8812 19.1164 20.1371 20.8605 17.9939 20.8605H6.00611C3.86291 20.8605 2.11877 19.1164 2.11877 16.9732V6.00611Z" fill="var(--fill-0, #DEDEDE)"/>
<path id="Vector_2" d="M12.0007 17.0745C15.0804 17.0745 17.5874 14.5689 17.5874 11.4878C17.5874 8.40672 15.0818 5.9011 12.0007 5.9011C8.91957 5.9011 6.41397 8.40672 6.41397 11.4878C6.41397 14.5689 8.91957 17.0745 12.0007 17.0745ZM12.0007 8.02123C13.9131 8.02123 15.4686 9.57672 15.4686 11.4892C15.4686 13.4016 13.9131 14.9571 12.0007 14.9571C10.0882 14.9571 8.53274 13.4016 8.53274 11.4892C8.53274 9.57672 10.0882 8.02123 12.0007 8.02123Z" fill="var(--fill-0, #DEDEDE)"/>
<path id="Vector_3" d="M18.1032 6.80384C18.9326 6.80384 19.6085 6.12925 19.6085 5.29857C19.6085 4.4679 18.9339 3.7933 18.1032 3.7933C17.2726 3.7933 16.598 4.4679 16.598 5.29857C16.598 6.12925 17.2726 6.80384 18.1032 6.80384Z" fill="var(--fill-0, #DEDEDE)"/>
</g>
</svg>
