<svg preserveAspectRatio="none" width="100%" height="100%" overflow="visible" style="display: block;" viewBox="0 0 24 23.6696" fill="none" xmlns="http://www.w3.org/2000/svg">
<g id="Group">
<path id="Vector" d="M0.841481 4.68427C0.279486 4.16263 0 3.51694 0 2.74868C0 1.98042 0.28098 1.30634 0.841481 0.783205C1.40348 0.261566 2.1269 0 3.01324 0C3.89958 0 4.59461 0.261566 5.15511 0.783205C5.71711 1.30484 5.99659 1.96099 5.99659 2.74868C5.99659 3.53637 5.71561 4.16263 5.15511 4.68427C4.59312 5.20591 3.88015 5.46747 3.01324 5.46747C2.14633 5.46747 1.40348 5.20591 0.841481 4.68427ZM5.52429 7.6766V23.6696H0.470806V7.6766H5.52429Z" fill="var(--fill-0, #DEDEDE)"/>
<path id="Vector_2" d="M22.3484 9.25632C23.45 10.4521 24 12.0932 24 14.1827V23.3869H19.2006V14.8314C19.2006 13.7777 18.9271 12.9586 18.3816 12.3757C17.836 11.7928 17.1006 11.4998 16.1799 11.4998C15.2592 11.4998 14.5238 11.7913 13.9782 12.3757C13.4327 12.9586 13.1592 13.7777 13.1592 14.8314V23.3869H8.33141V7.6316H13.1592V9.72118C13.6479 9.02466 14.3071 8.47462 15.1351 8.06956C15.9632 7.66451 16.8944 7.46272 17.9302 7.46272C19.7746 7.46272 21.2483 8.06058 22.3484 9.25632Z" fill="var(--fill-0, #DEDEDE)"/>
</g>
</svg>
