<svg xmlns="http://www.w3.org/2000/svg" width="28" height="25" viewBox="0 0 28 25" fill="none">
<path d="M6.25 25C5.5625 25 4.97396 24.7552 4.48438 24.2656C3.99479 23.776 3.75 23.1875 3.75 22.5V20C3.75 19.6458 3.86979 19.349 4.10938 19.1094C4.34896 18.8698 4.64583 18.75 5 18.75C5.35417 18.75 5.65104 18.8698 5.89062 19.1094C6.13021 19.349 6.25 19.6458 6.25 20V22.5H21.25V20C21.25 19.6458 21.3698 19.349 21.6094 19.1094C21.849 18.8698 22.1458 18.75 22.5 18.75C22.8542 18.75 23.151 18.8698 23.3906 19.1094C23.6302 19.349 23.75 19.6458 23.75 20V22.5C23.75 23.1875 23.5052 23.776 23.0156 24.2656C22.526 24.7552 21.9375 25 21.25 25H6.25ZM3.75 2.5C3.75 1.8125 3.99479 1.22396 4.48438 0.734375C4.97396 0.244792 5.5625 0 6.25 0H15.2188C15.5521 0 15.8698 0.0625 16.1719 0.1875C16.474 0.3125 16.7396 0.489583 16.9688 0.71875L23.0312 6.78125C23.2604 7.01042 23.4375 7.27604 23.5625 7.57812C23.6875 7.88021 23.75 8.19792 23.75 8.53125V10C23.75 10.3542 23.6302 10.651 23.3906 10.8906C23.151 11.1302 22.8542 11.25 22.5 11.25C22.1458 11.25 21.849 11.1302 21.6094 10.8906C21.3698 10.651 21.25 10.3542 21.25 10V8.75H16.25C15.8958 8.75 15.599 8.63021 15.3594 8.39062C15.1198 8.15104 15 7.85417 15 7.5V2.5H6.25V10C6.25 10.3542 6.13021 10.651 5.89062 10.8906C5.65104 11.1302 5.35417 11.25 5 11.25C4.64583 11.25 4.34896 11.1302 4.10938 10.8906C3.86979 10.651 3.75 10.3542 3.75 10V2.5ZM26.25 16.25H1.25C0.895833 16.25 0.598958 16.1302 0.359375 15.8906C0.119792 15.651 0 15.3542 0 15C0 14.6458 0.119792 14.349 0.359375 14.1094C0.598958 13.8698 0.895833 13.75 1.25 13.75H26.25C26.6042 13.75 26.901 13.8698 27.1406 14.1094C27.3802 14.349 27.5 14.6458 27.5 15C27.5 15.3542 27.3802 15.651 27.1406 15.8906C26.901 16.1302 26.6042 16.25 26.25 16.25Z" fill="currentColor"/>
</svg>
