<svg xmlns="http://www.w3.org/2000/svg" width="80" height="54" viewBox="0 0 80 54" fill="none">
  <g clip-path="url(#clip0_goodfirms)">
    <mask id="mask0_goodfirms" style="mask-type:luminance" maskUnits="userSpaceOnUse" x="0" y="0" width="80" height="54">
      <path d="M79.2065 0.631592H0.101562V53.3682H79.2065V0.631592Z" fill="white"/>
    </mask>
    <g mask="url(#mask0_goodfirms)">
      <path d="M32.8072 1.42337C32.068 1.71698 31.2511 2.07733 30.9917 2.23748C29.1502 3.39858 27.9442 4.83996 27.0623 6.96198L26.6214 8.02967L26.5825 19.6007L26.5566 31.1851H30.5119H34.4671V21.1889C34.4671 15.6903 34.5061 11.0059 34.5449 10.779C34.5968 10.552 34.8432 10.1117 35.1155 9.79136L35.6083 9.2308L45.4121 9.19077L55.2159 9.16409V5.0268V0.889526H44.6859L34.1429 0.902869L32.8072 1.42337Z" fill="white"/>
      <path d="M38.3696 12.6874C38.188 12.7942 38.0065 12.981 37.9546 13.1145C37.9028 13.2613 37.8509 14.8495 37.8509 16.6646L37.8379 19.9744H43.0251H48.2123V21.1755C48.2123 22.2833 48.1864 22.4167 47.8882 22.7103L47.5769 23.0439H42.7009H37.8379V27.1145V31.1851L43.5827 31.145C49.6258 31.105 49.7166 31.0916 51.1302 30.4377C53.0753 29.5301 54.7223 27.8753 55.3188 26.2471C55.9413 24.5521 55.9153 24.8857 55.9672 18.533L56.0061 12.5006H47.3435C40.3019 12.514 38.616 12.5406 38.3696 12.6874Z" fill="white"/>
      <path d="M52.661 40.8075C52.2072 41.408 52.2201 41.4614 52.7907 42.1822L53.089 42.5692L53.3613 42.2756C53.504 42.1154 53.6985 41.8485 53.7893 41.6616C53.9449 41.368 53.919 41.2746 53.5947 40.7941C53.4002 40.5005 53.1928 40.2603 53.1538 40.2603C53.102 40.2603 52.8815 40.5138 52.661 40.8075Z" fill="white"/>
      <path d="M7.84313 40.7942C7.42816 40.9277 6.85756 41.2079 6.57227 41.4081C5.85902 41.9153 4.95127 42.9829 4.75674 43.5301C4.66597 43.7837 4.54925 43.9972 4.49739 43.9972C4.45848 43.9972 4.30287 44.5177 4.17319 45.145C3.97867 46.1059 3.9657 46.4662 4.08241 47.2537C4.45848 49.9897 6.5593 51.9782 9.32149 52.2318C10.0217 52.2985 10.3849 52.2451 11.176 51.9915C11.7206 51.818 12.1615 51.6312 12.1615 51.5778C12.1615 51.511 12.2263 51.471 12.3041 51.471C12.382 51.471 12.6672 51.3109 12.9526 51.0973L13.4583 50.737V48.228V45.7322H11.3445H9.24371L9.07509 46.2661C8.99731 46.5597 8.91945 46.8533 8.91945 46.9334C8.91945 47.0001 9.58086 47.0802 10.5145 47.0935L12.0967 47.1335L12.1356 48.4549C12.1744 49.9229 12.2004 49.8695 11.0981 50.4701C10.6312 50.7237 10.2811 50.8037 9.64566 50.8037C7.99875 50.8037 6.58524 49.8695 5.87199 48.3214C5.54779 47.6274 5.52185 47.4538 5.57373 46.3462C5.65154 44.4377 6.40368 43.1031 7.79127 42.3824C8.89358 41.7951 10.735 41.982 11.8632 42.7961L12.4078 43.1832L12.8229 42.6359L13.2378 42.1021L12.9266 41.8486C12.0577 41.1679 10.1644 40.5139 9.13998 40.5406C8.84167 40.5406 8.25811 40.6608 7.84313 40.7942Z" fill="white"/>
      <path d="M41.7673 40.7007L41.2097 40.8475V42.7026V44.571L40.8596 44.1974C40.289 43.6101 39.4979 43.3299 38.4475 43.3299C37.7732 43.3299 37.3842 43.3967 37.06 43.5834C36.8136 43.7303 36.4764 43.9037 36.3338 43.9838C35.9836 44.144 35.387 44.8913 34.9981 45.6388C34.596 46.3995 34.5053 48.2946 34.8294 49.2422C35.5037 51.1908 37.2675 52.2451 39.2127 51.8714C39.6665 51.7779 40.0426 51.6578 40.0426 51.5911C40.0426 51.5244 40.1204 51.471 40.2112 51.471C40.3149 51.471 40.5224 51.3242 40.691 51.1373C41.1578 50.6302 41.3394 50.7103 41.3394 51.4176V52.0315L41.897 51.9381C42.1953 51.8847 42.4547 51.8314 42.4547 51.818C42.4677 51.818 42.4935 49.2822 42.5195 46.2127C42.5584 42.5425 42.5325 40.6073 42.4417 40.594C42.3768 40.5806 42.0656 40.634 41.7673 40.7007ZM40.3538 45.4519C41.3913 46.4528 41.6636 48.001 41.0152 49.1488C40.3798 50.2699 39.0181 50.8704 37.864 50.5367C37.2804 50.3766 36.4116 49.696 36.4116 49.389C36.4116 49.2822 36.3726 49.2021 36.3078 49.2021C36.1522 49.2021 35.8928 48.1879 35.8928 47.5473C35.8928 45.6788 37.6435 44.2374 39.2645 44.7713C39.5887 44.878 40.0686 45.185 40.3538 45.4519Z" fill="white"/>
      <path d="M44.8418 46.4128V52.0448L45.3346 51.9513C45.5939 51.9113 45.944 51.8713 46.1126 51.8713H46.398V49.3355V46.7998H48.0189H49.64V46.1325V45.4652H48.0189H46.398V43.877C46.398 42.3956 46.4109 42.2754 46.6573 42.1954C46.7999 42.142 47.7207 42.1287 48.7062 42.142L50.4829 42.1687L50.4569 41.7817C50.3791 40.7139 50.6126 40.7941 47.5651 40.7941H44.8418V46.4128Z" fill="white"/>
      <path d="M75.4075 43.29C75.2 43.33 74.785 43.597 74.4738 43.9039C72.9565 45.412 73.6309 47.574 75.7706 48.0679C75.991 48.1212 76.4319 48.2814 76.769 48.4282C77.3008 48.6551 77.3915 48.7618 77.4694 49.1622C77.5861 49.7761 77.3785 50.1766 76.821 50.4568C76.2504 50.7371 75.6279 50.6436 74.9795 50.1899C74.7331 50.0164 74.4867 49.8696 74.4348 49.8696C74.2922 49.8696 73.6309 50.5369 73.6309 50.6703C73.6309 50.7505 73.9031 51.004 74.2533 51.2576C75.3815 52.1117 77.1711 52.1251 78.027 51.3109C79.4794 49.9096 79.1163 47.9878 77.236 47.0936C76.8987 46.9334 76.4708 46.8 76.3022 46.8C76.1207 46.8 75.9391 46.7333 75.9003 46.6665C75.8613 46.5864 75.7187 46.5331 75.589 46.5331C75.4593 46.5331 75.2518 46.3328 75.1091 46.066C74.8757 45.6122 74.8757 45.5855 75.1091 45.1318C75.2518 44.8648 75.4982 44.6246 75.6668 44.5846C76.1725 44.451 76.9636 44.6112 77.2748 44.9182C77.6639 45.2919 77.7806 45.2652 78.2086 44.7313L78.5587 44.2909L78.04 43.8639C77.3137 43.2767 76.5616 43.1165 75.4075 43.29Z" fill="white"/>
      <path d="M17.6604 43.6637C16.2988 44.3576 15.378 45.839 15.2873 47.4539C15.2225 49.0021 15.6763 50.0697 16.8824 51.1641C17.6734 51.8848 19.035 52.2451 20.0984 52.0182C21.058 51.8048 21.7194 51.431 22.3808 50.697C23.2237 49.7628 23.4831 49.0821 23.496 47.7342C23.509 46.7732 23.4571 46.4797 23.1719 45.8658C22.7309 44.9182 21.9788 44.1174 21.071 43.677C20.0595 43.1832 18.5942 43.1832 17.6604 43.6637ZM20.4097 44.9449C21.9139 45.6789 22.5624 47.494 21.875 49.0021C21.7194 49.3357 21.5508 49.6027 21.4989 49.6027C21.4341 49.6027 21.3434 49.7227 21.3044 49.8695C21.2526 50.0164 21.1618 50.1098 21.097 50.0697C21.0321 50.0164 20.9803 50.043 20.9803 50.1231C20.9803 50.1898 20.7209 50.35 20.3967 50.4701C19.2165 50.9372 17.855 50.4567 17.1288 49.309C16.8046 48.8152 16.7656 48.6283 16.7656 47.6541C16.7656 46.5731 16.7656 46.5597 17.2973 45.9191C17.8938 45.1717 18.7497 44.6646 19.4111 44.6646C19.6575 44.6646 20.1114 44.7847 20.4097 44.9449Z" fill="white"/>
      <path d="M27.503 43.6636C26.0116 44.4376 25.1817 45.9324 25.2076 47.8676C25.2206 49.1755 25.6356 50.123 26.6081 51.0439C27.2048 51.6045 27.4382 51.7246 28.307 51.9381C29.3963 52.1917 30.0836 52.125 31.0821 51.6445C31.6916 51.3375 32.5475 50.47 32.8717 49.8027C34.0907 47.347 33.1051 44.5845 30.6412 43.5167C30.3819 43.41 29.7724 43.33 29.1758 43.33C28.3589 43.33 28.0347 43.3967 27.503 43.6636ZM30.2522 44.9181C31.7565 45.6388 32.4308 47.4939 31.7565 49.002C30.9395 50.8171 28.4496 51.2041 27.2696 49.696C26.8027 49.0954 26.7508 49.0154 26.699 48.8018C26.3877 47.5606 26.4137 47.227 26.8935 46.2661C27.5679 44.878 28.9943 44.3176 30.2522 44.9181Z" fill="white"/>
      <path d="M59.7153 43.4902C58.7815 43.6104 58.3147 43.8907 57.9256 44.5446C57.4847 45.2786 57.3161 45.2119 57.2643 44.2911L57.2253 43.5169L56.6807 43.6371L56.123 43.7438V47.9479V52.1652L56.551 52.0718C57.4977 51.8716 57.4199 52.0718 57.4199 49.6828C57.4199 47.5875 57.4847 47.1071 57.8868 46.1728C58.1331 45.5989 58.7945 45.0918 59.4429 44.9984C59.9227 44.9183 59.9745 44.8516 60.2469 44.171C60.4155 43.7572 60.5322 43.4235 60.5063 43.4102C60.4803 43.3969 60.1302 43.4235 59.7153 43.4902Z" fill="white"/>
      <path d="M64.3051 43.5436C64.0587 43.6503 63.7345 43.8772 63.5918 44.064C63.2158 44.5178 63.0213 44.4778 62.9694 43.9573L62.9304 43.5168L62.3858 43.637L61.8281 43.7437V47.9478C61.8281 51.8981 61.8411 52.1517 62.0616 52.085C62.1783 52.0583 62.4636 51.9916 62.697 51.9382L63.099 51.8581L63.1509 48.962C63.2158 45.6255 63.2805 45.3586 64.1235 44.9048C64.6422 44.6246 64.7071 44.6112 65.2258 44.7981C66.1724 45.1317 66.2373 45.3986 66.2373 49.0154V52.0984L66.8727 51.9649L67.5211 51.8448L67.5601 48.8686C67.5989 46.106 67.6249 45.8524 67.8712 45.5054C68.2992 44.9048 68.9735 44.6246 69.5701 44.7848C70.4779 45.0383 70.5297 45.2785 70.5167 48.8686C70.5037 52.3786 70.426 52.0984 71.4634 51.9248L71.9432 51.8314V48.7485C71.9302 45.8791 71.9173 45.6122 71.645 44.9315C70.9447 43.1565 68.8049 42.7961 67.4563 44.2375C67.2229 44.4911 67.0154 44.6379 67.0154 44.5712C67.0154 44.4911 66.8079 44.2109 66.5615 43.9573C65.939 43.3167 65.135 43.1698 64.3051 43.5436Z" fill="white"/>
      <path d="M52.6616 43.6903L52.3633 43.7436V47.8809V52.0182L52.9858 51.9248C53.3229 51.8847 53.6082 51.8314 53.6212 51.818C53.6342 51.8047 53.6602 49.9629 53.6731 47.7341L53.686 43.6636L53.3229 43.6501C53.1155 43.6368 52.8172 43.6501 52.6616 43.6903Z" fill="white"/>
    </g>
  </g>
  <defs>
    <clipPath id="clip0_goodfirms">
      <rect width="79.2581" height="54" fill="white"/>
    </clipPath>
  </defs>
</svg>
