<svg preserveAspectRatio="none" width="100%" height="100%" overflow="visible" style="display: block;" viewBox="0 0 30 30" fill="none" xmlns="http://www.w3.org/2000/svg">
<g id="Frame">
<path id="Vector" d="M8.875 14.1875C9.16667 13.6042 9.46875 13.0417 9.78125 12.5C10.0938 11.9583 10.4375 11.4167 10.8125 10.875L9.0625 10.5312L6.4375 13.1562L8.875 14.1875ZM23.9375 5.59375C22.4792 5.63542 20.9219 6.0625 19.2656 6.875C17.6094 7.6875 16.1042 8.77083 14.75 10.125C13.875 11 13.0938 11.9375 12.4062 12.9375C11.7188 13.9375 11.2083 14.875 10.875 15.75L14.4375 19.2812C15.3125 18.9479 16.25 18.4375 17.25 17.75C18.25 17.0625 19.1875 16.2812 20.0625 15.4062C21.4167 14.0521 22.5 12.5521 23.3125 10.9062C24.125 9.26042 24.5521 7.70833 24.5938 6.25C24.5938 6.16667 24.5781 6.08333 24.5469 6C24.5156 5.91667 24.4688 5.84375 24.4062 5.78125C24.3438 5.71875 24.2708 5.67187 24.1875 5.64062C24.1042 5.60937 24.0208 5.59375 23.9375 5.59375ZM16.3438 11.3281C16.3438 10.6302 16.5833 10.0417 17.0625 9.5625C17.5417 9.08333 18.1354 8.84375 18.8438 8.84375C19.5521 8.84375 20.1458 9.08333 20.625 9.5625C21.1042 10.0417 21.3438 10.6302 21.3438 11.3281C21.3438 12.026 21.1042 12.6146 20.625 13.0937C20.1458 13.5729 19.5521 13.8125 18.8438 13.8125C18.1354 13.8125 17.5417 13.5729 17.0625 13.0937C16.5833 12.6146 16.3438 12.026 16.3438 11.3281ZM16 21.2812L17.0312 23.75L19.6562 21.125L19.3125 19.375C18.7708 19.75 18.2292 20.0885 17.6875 20.3906C17.1458 20.6927 16.5833 20.9896 16 21.2812ZM26.9688 4.59375C27.1354 6.88542 26.7604 9.11979 25.8438 11.2969C24.9271 13.474 23.4792 15.5521 21.5 17.5312L22.125 20.625C22.2083 21.0417 22.1875 21.4479 22.0625 21.8437C21.9375 22.2396 21.7292 22.5833 21.4375 22.875L17.5 26.8125C17.1875 27.125 16.8125 27.2448 16.375 27.1719C15.9375 27.099 15.6354 26.8542 15.4688 26.4375L13.5625 21.9687L8.21875 16.625L3.75 14.7187C3.33333 14.5521 3.08333 14.25 3 13.8125C2.91667 13.375 3.03125 13 3.34375 12.6875L7.28125 8.75C7.57292 8.45833 7.92188 8.25 8.32812 8.125C8.73438 8 9.14583 7.97917 9.5625 8.0625L12.6562 8.6875C14.6354 6.70833 16.7135 5.26042 18.8906 4.34375C21.0677 3.42708 23.3021 3.05208 25.5938 3.21875C25.7604 3.23958 25.9271 3.28646 26.0938 3.35937C26.2604 3.43229 26.4062 3.53125 26.5312 3.65625C26.6562 3.78125 26.7552 3.92708 26.8281 4.09375C26.901 4.26042 26.9479 4.42708 26.9688 4.59375ZM4.90625 19.9687C5.63542 19.2396 6.52604 18.8698 7.57812 18.8594C8.63021 18.849 9.52083 19.2083 10.25 19.9375C10.9792 20.6667 11.3385 21.5573 11.3281 22.6094C11.3177 23.6615 10.9479 24.5521 10.2188 25.2812C9.21875 26.2812 8.03646 26.875 6.67188 27.0625C5.30729 27.25 3.9375 27.4375 2.5625 27.625C2.75 26.25 2.9375 24.8802 3.125 23.5156C3.3125 22.151 3.90625 20.9687 4.90625 19.9687ZM6.6875 21.7187C6.33333 22.0729 6.08854 22.5 5.95312 23C5.81771 23.5 5.70833 24.0104 5.625 24.5312C6.14583 24.4479 6.65625 24.3437 7.15625 24.2187C7.65625 24.0937 8.08333 23.8542 8.4375 23.5C8.6875 23.25 8.82292 22.9479 8.84375 22.5937C8.86458 22.2396 8.75 21.9375 8.5 21.6875C8.25 21.4375 7.94792 21.3177 7.59375 21.3281C7.23958 21.3385 6.9375 21.4687 6.6875 21.7187Z" fill="var(--fill-0, white)"/>
</g>
</svg>
