<svg preserveAspectRatio="none" width="100%" height="100%" overflow="visible" style="display: block;" viewBox="0 0 30 30" fill="none" xmlns="http://www.w3.org/2000/svg">
<g id="Frame">
<path id="Vector" d="M14.8437 25C14.9271 25 15.0104 24.9792 15.0937 24.9375C15.1771 24.8958 15.2396 24.8542 15.2812 24.8125L25.5312 14.5625C25.7812 14.3125 25.9635 14.0312 26.0781 13.7187C26.1927 13.4062 26.25 13.0937 26.25 12.7812C26.25 12.4479 26.1927 12.1302 26.0781 11.8281C25.9635 11.526 25.7812 11.2604 25.5312 11.0312L20.2187 5.71875C19.9896 5.46875 19.724 5.28646 19.4219 5.17187C19.1198 5.05729 18.8021 5 18.4687 5C18.1562 5 17.8437 5.05729 17.5312 5.17187C17.2187 5.28646 16.9375 5.46875 16.6875 5.71875L16.3437 6.0625L18.6562 8.40625C18.9687 8.69792 19.1979 9.03125 19.3437 9.40625C19.4896 9.78125 19.5625 10.1771 19.5625 10.5937C19.5625 11.4687 19.2656 12.2031 18.6719 12.7969C18.0781 13.3906 17.3437 13.6875 16.4687 13.6875C16.0521 13.6875 15.651 13.6146 15.2656 13.4687C14.8802 13.3229 14.5417 13.1042 14.25 12.8125L11.9062 10.5L6.4375 15.9687C6.375 16.0312 6.32812 16.099 6.29687 16.1719C6.26562 16.2448 6.25 16.3229 6.25 16.4062C6.25 16.5729 6.3125 16.724 6.4375 16.8594C6.5625 16.9948 6.70833 17.0625 6.875 17.0625C6.95833 17.0625 7.04167 17.0417 7.125 17C7.20833 16.9583 7.27083 16.9167 7.3125 16.875L10.6875 13.5C10.9167 13.2708 11.2031 13.151 11.5469 13.1406C11.8906 13.1302 12.1875 13.25 12.4375 13.5C12.6667 13.7292 12.7812 14.0208 12.7812 14.375C12.7812 14.7292 12.6667 15.0208 12.4375 15.25L9.09375 18.625C9.03125 18.6875 8.98437 18.7552 8.95312 18.8281C8.92187 18.901 8.90625 18.9792 8.90625 19.0625C8.90625 19.2292 8.96875 19.375 9.09375 19.5C9.21875 19.625 9.36458 19.6875 9.53125 19.6875C9.61458 19.6875 9.69792 19.6667 9.78125 19.625C9.86458 19.5833 9.92708 19.5417 9.96875 19.5L13.3437 16.1562C13.5729 15.9271 13.8594 15.8073 14.2031 15.7969C14.5469 15.7865 14.8437 15.9062 15.0937 16.1562C15.3229 16.3854 15.4375 16.6771 15.4375 17.0312C15.4375 17.3854 15.3229 17.6771 15.0937 17.9062L11.75 21.2812C11.6875 21.3229 11.6406 21.3854 11.6094 21.4687C11.5781 21.5521 11.5625 21.6354 11.5625 21.7187C11.5625 21.8854 11.625 22.0312 11.75 22.1562C11.875 22.2812 12.0208 22.3437 12.1875 22.3437C12.2708 22.3437 12.349 22.3281 12.4219 22.2969C12.4948 22.2656 12.5625 22.2187 12.625 22.1562L16 18.8125C16.2292 18.5833 16.5156 18.4635 16.8594 18.4531C17.2031 18.4427 17.5 18.5625 17.75 18.8125C17.9792 19.0417 18.0937 19.3333 18.0937 19.6875C18.0937 20.0417 17.9792 20.3333 17.75 20.5625L14.375 23.9375C14.3125 24 14.2656 24.0677 14.2344 24.1406C14.2031 24.2135 14.1875 24.2917 14.1875 24.375C14.1875 24.5417 14.2552 24.6875 14.3906 24.8125C14.526 24.9375 14.6771 25 14.8437 25ZM14.8125 27.5C14.0417 27.5 13.3594 27.2448 12.7656 26.7344C12.1719 26.224 11.8229 25.5833 11.7187 24.8125C11.0104 24.7083 10.4167 24.4167 9.9375 23.9375C9.45833 23.4583 9.16667 22.8646 9.0625 22.1562C8.35417 22.0521 7.76562 21.7552 7.29687 21.2656C6.82812 20.776 6.54167 20.1875 6.4375 19.5C5.64583 19.3958 5 19.0521 4.5 18.4687C4 17.8854 3.75 17.1979 3.75 16.4062C3.75 15.9896 3.82812 15.5885 3.98437 15.2031C4.14062 14.8177 4.36458 14.4792 4.65625 14.1875L10.125 8.71875C10.6042 8.23958 11.1927 8 11.8906 8C12.5885 8 13.1771 8.23958 13.6562 8.71875L16 11.0625C16.0417 11.125 16.1042 11.1719 16.1875 11.2031C16.2708 11.2344 16.3542 11.25 16.4375 11.25C16.625 11.25 16.7812 11.1927 16.9062 11.0781C17.0312 10.9635 17.0937 10.8125 17.0937 10.625C17.0937 10.5417 17.0781 10.4583 17.0469 10.375C17.0156 10.2917 16.9687 10.2292 16.9062 10.1875L12.4375 5.71875C12.2083 5.46875 11.9427 5.28646 11.6406 5.17187C11.3385 5.05729 11.0208 5 10.6875 5C10.375 5 10.0625 5.05729 9.75 5.17187C9.4375 5.28646 9.15625 5.46875 8.90625 5.71875L4.5 10.1562C4.20833 10.4479 4 10.7917 3.875 11.1875C3.75 11.5833 3.71875 11.9792 3.78125 12.375C3.84375 12.7292 3.77083 13.0417 3.5625 13.3125C3.35417 13.5833 3.07292 13.7396 2.71875 13.7812C2.36458 13.8229 2.05208 13.7448 1.78125 13.5469C1.51042 13.349 1.35417 13.0729 1.3125 12.7187C1.1875 11.9271 1.24479 11.151 1.48437 10.3906C1.72396 9.63021 2.13542 8.95833 2.71875 8.375L7.125 3.96875C7.625 3.48958 8.18229 3.125 8.79687 2.875C9.41146 2.625 10.0417 2.5 10.6875 2.5C11.3333 2.5 11.9635 2.625 12.5781 2.875C13.1927 3.125 13.7396 3.48958 14.2187 3.96875L14.5625 4.3125L14.9062 3.96875C15.4062 3.48958 15.9635 3.125 16.5781 2.875C17.1927 2.625 17.8229 2.5 18.4687 2.5C19.1146 2.5 19.7448 2.625 20.3594 2.875C20.974 3.125 21.5208 3.48958 22 3.96875L27.2812 9.25C27.7604 9.72917 28.125 10.2812 28.375 10.9062C28.625 11.5312 28.75 12.1667 28.75 12.8125C28.75 13.4583 28.625 14.0885 28.375 14.7031C28.125 15.3177 27.7604 15.8646 27.2812 16.3437L17.0312 26.5625C16.7396 26.8542 16.401 27.0833 16.0156 27.25C15.6302 27.4167 15.2292 27.5 14.8125 27.5Z" fill="var(--fill-0, white)"/>
</g>
</svg>
