<svg preserveAspectRatio="none" width="100%" height="100%" overflow="visible" style="display: block;" viewBox="0 0 9.6 9.6" fill="none" xmlns="http://www.w3.org/2000/svg">
<path id="Vector" d="M0.0220759 4.73374C0.00735803 4.75399 0 4.77791 0 4.80184C0 4.82761 0.00735803 4.85153 0.0220759 4.87178C0.0386335 4.89018 0.0588737 4.90491 0.0827902 4.91595L1.31357 5.35767C1.98691 5.60245 2.59586 5.99264 3.10363 6.49877C3.61139 7.00307 4.00142 7.61595 4.24242 8.29141L4.6858 9.51718C4.69316 9.5411 4.70788 9.56319 4.72812 9.57792C4.75019 9.59264 4.77411 9.6 4.79986 9.6C4.82562 9.6 4.85138 9.59264 4.87161 9.57792C4.89001 9.55951 4.90289 9.53926 4.91392 9.51718L5.3573 8.29141C5.60015 7.61779 5.98833 7.00491 6.4961 6.49877C7.00018 5.98896 7.61098 5.59877 8.28616 5.35767L9.51694 4.91595C9.54086 4.90859 9.56293 4.89202 9.57765 4.87178C9.59421 4.85153 9.60156 4.82761 9.59972 4.80184C9.59972 4.77607 9.59237 4.7503 9.57765 4.73006C9.56109 4.71165 9.54086 4.69693 9.51694 4.68773L8.28616 4.24417C7.61466 3.99755 7.00386 3.60736 6.4961 3.10306C5.98833 2.59877 5.59831 1.98773 5.3573 1.31227L4.91392 0.0828187C4.90657 0.0588923 4.89185 0.0368089 4.87161 0.022085C4.85138 0.00736106 4.82562 0 4.79986 0C4.77411 0 4.74835 0.00736106 4.72812 0.022085C4.70972 0.0386494 4.695 0.0588923 4.6858 0.0828187L4.24242 1.31595C3.99958 1.98957 3.60955 2.60061 3.10363 3.10675C2.59954 3.61657 1.98875 4.00675 1.31357 4.24785L0.0827902 4.69141C0.0588737 4.69877 0.0367938 4.7135 0.0220759 4.73374Z" fill="var(--fill-0, #52525B)"/>
</svg>
