<svg preserveAspectRatio="none" width="100%" height="100%" overflow="visible" style="display: block;" viewBox="0 0 30 30" fill="none" xmlns="http://www.w3.org/2000/svg">
<g id="Frame">
<path id="Vector" d="M23.6875 27.5C21.0833 27.5 18.5104 26.9323 15.9687 25.7969C13.4271 24.6615 11.1146 23.0521 9.03125 20.9687C6.94792 18.8854 5.33854 16.5729 4.20312 14.0312C3.06771 11.4896 2.5 8.91667 2.5 6.3125C2.5 5.9375 2.625 5.625 2.875 5.375C3.125 5.125 3.4375 5 3.8125 5H8.875C9.16667 5 9.42708 5.09896 9.65625 5.29687C9.88542 5.49479 10.0208 5.72917 10.0625 6L10.875 10.375C10.9167 10.7083 10.9062 10.9896 10.8437 11.2187C10.7812 11.4479 10.6667 11.6458 10.5 11.8125L7.46875 14.875C7.88542 15.6458 8.38021 16.3906 8.95312 17.1094C9.52604 17.8281 10.1562 18.5208 10.8437 19.1875C11.4896 19.8333 12.1667 20.4323 12.875 20.9844C13.5833 21.5365 14.3333 22.0417 15.125 22.5L18.0625 19.5625C18.25 19.375 18.4948 19.2344 18.7969 19.1406C19.099 19.0469 19.3958 19.0208 19.6875 19.0625L24 19.9375C24.2917 20.0208 24.5312 20.1719 24.7187 20.3906C24.9062 20.6094 25 20.8542 25 21.125V26.1875C25 26.5625 24.875 26.875 24.625 27.125C24.375 27.375 24.0625 27.5 23.6875 27.5ZM6.28125 12.5L8.34375 10.4375L7.8125 7.5H5.03125C5.13542 8.35417 5.28125 9.19792 5.46875 10.0312C5.65625 10.8646 5.92708 11.6875 6.28125 12.5ZM17.4687 23.6875C18.2812 24.0417 19.1094 24.3229 19.9531 24.5312C20.7969 24.7396 21.6458 24.875 22.5 24.9375V22.1875L19.5625 21.5937L17.4687 23.6875ZM16.25 5C15.8958 5 15.599 4.88021 15.3594 4.64062C15.1198 4.40104 15 4.10417 15 3.75C15 3.39583 15.1198 3.09896 15.3594 2.85937C15.599 2.61979 15.8958 2.5 16.25 2.5H26.25C26.6042 2.5 26.901 2.61979 27.1406 2.85937C27.3802 3.09896 27.5 3.39583 27.5 3.75C27.5 4.10417 27.3802 4.40104 27.1406 4.64062C26.901 4.88021 26.6042 5 26.25 5H16.25ZM16.25 10C15.8958 10 15.599 9.88021 15.3594 9.64062C15.1198 9.40104 15 9.10417 15 8.75C15 8.39583 15.1198 8.09896 15.3594 7.85937C15.599 7.61979 15.8958 7.5 16.25 7.5H26.25C26.6042 7.5 26.901 7.61979 27.1406 7.85937C27.3802 8.09896 27.5 8.39583 27.5 8.75C27.5 9.10417 27.3802 9.40104 27.1406 9.64062C26.901 9.88021 26.6042 10 26.25 10H16.25ZM16.25 15C15.8958 15 15.599 14.8802 15.3594 14.6406C15.1198 14.401 15 14.1042 15 13.75C15 13.3958 15.1198 13.099 15.3594 12.8594C15.599 12.6198 15.8958 12.5 16.25 12.5H26.25C26.6042 12.5 26.901 12.6198 27.1406 12.8594C27.3802 13.099 27.5 13.3958 27.5 13.75C27.5 14.1042 27.3802 14.401 27.1406 14.6406C26.901 14.8802 26.6042 15 26.25 15H16.25Z" fill="var(--fill-0, black)"/>
</g>
</svg>
