<svg xmlns="http://www.w3.org/2000/svg" width="25" height="25" viewBox="0 0 25 25" fill="none">
<path d="M11.5625 17.0625L7.8125 13.3125C7.5625 13.0625 7.4375 12.7708 7.4375 12.4375C7.4375 12.1042 7.5625 11.8125 7.8125 11.5625L11.5625 7.8125C11.8125 7.5625 12.1042 7.4375 12.4375 7.4375C12.7708 7.4375 13.0625 7.5625 13.3125 7.8125L17.0625 11.5625C17.3125 11.8125 17.4375 12.1042 17.4375 12.4375C17.4375 12.7708 17.3125 13.0625 17.0625 13.3125L13.3125 17.0625C13.0625 17.3125 12.7708 17.4375 12.4375 17.4375C12.1042 17.4375 11.8125 17.3125 11.5625 17.0625ZM14.1875 24.1562C13.9583 24.3854 13.6875 24.5625 13.375 24.6875C13.0625 24.8125 12.75 24.875 12.4375 24.875C12.125 24.875 11.8125 24.8125 11.5 24.6875C11.1875 24.5625 10.9167 24.3854 10.6875 24.1562L0.71875 14.1875C0.489583 13.9583 0.3125 13.6875 0.1875 13.375C0.0625 13.0625 0 12.75 0 12.4375C0 12.125 0.0625 11.8125 0.1875 11.5C0.3125 11.1875 0.489583 10.9167 0.71875 10.6875L10.6562 0.75C10.9062 0.5 11.1823 0.3125 11.4844 0.1875C11.7865 0.0625 12.1042 0 12.4375 0C12.7708 0 13.0885 0.0625 13.3906 0.1875C13.6927 0.3125 13.9688 0.5 14.2188 0.75L24.1562 10.6875C24.3854 10.9167 24.5625 11.1875 24.6875 11.5C24.8125 11.8125 24.875 12.125 24.875 12.4375C24.875 12.75 24.8125 13.0625 24.6875 13.375C24.5625 13.6875 24.3854 13.9583 24.1562 14.1875L14.1875 24.1562ZM12.4375 21.4375L21.4375 12.4375L12.4375 3.4375L3.4375 12.4375L12.4375 21.4375Z" fill="black"/>
</svg>
