<svg xmlns="http://www.w3.org/2000/svg" width="25" height="24" viewBox="0 0 25 24" fill="none">
<path d="M2.5 22.5C1.8125 22.5 1.22396 22.2552 0.734375 21.7656C0.244792 21.276 0 20.6875 0 20V2.5C0 1.8125 0.244792 1.22396 0.734375 0.734375C1.22396 0.244792 1.8125 0 2.5 0H20C20.6875 0 21.276 0.244792 21.7656 0.734375C22.2552 1.22396 22.5 1.8125 22.5 2.5V11.25C22.5 11.6042 22.3802 11.901 22.1406 12.1406C21.901 12.3802 21.6042 12.5 21.25 12.5C20.8958 12.5 20.599 12.3802 20.3594 12.1406C20.1198 11.901 20 11.6042 20 11.25V2.5H2.5V20H10C10.3542 20 10.651 20.1198 10.8906 20.3594C11.1302 20.599 11.25 20.8958 11.25 21.25C11.25 21.6042 11.1302 21.901 10.8906 22.1406C10.651 22.3802 10.3542 22.5 10 22.5H2.5ZM17.9375 20.2188L22.3438 15.7812C22.5938 15.5312 22.8906 15.4062 23.2344 15.4062C23.5781 15.4062 23.875 15.5312 24.125 15.7812C24.375 16.0312 24.5 16.3281 24.5 16.6719C24.5 17.0156 24.375 17.3125 24.125 17.5625L18.8125 22.875C18.5625 23.125 18.2656 23.25 17.9219 23.25C17.5781 23.25 17.2812 23.125 17.0312 22.875L14.375 20.2188C14.1458 19.9688 14.0312 19.6719 14.0312 19.3281C14.0312 18.9844 14.1562 18.6875 14.4062 18.4375C14.6562 18.1875 14.9479 18.0625 15.2812 18.0625C15.6146 18.0625 15.9062 18.1875 16.1562 18.4375L17.9375 20.2188ZM7.14062 12.1406C7.38021 11.901 7.5 11.6042 7.5 11.25C7.5 10.8958 7.38021 10.599 7.14062 10.3594C6.90104 10.1198 6.60417 10 6.25 10C5.89583 10 5.59896 10.1198 5.35938 10.3594C5.11979 10.599 5 10.8958 5 11.25C5 11.6042 5.11979 11.901 5.35938 12.1406C5.59896 12.3802 5.89583 12.5 6.25 12.5C6.60417 12.5 6.90104 12.3802 7.14062 12.1406ZM7.14062 7.14062C7.38021 6.90104 7.5 6.60417 7.5 6.25C7.5 5.89583 7.38021 5.59896 7.14062 5.35938C6.90104 5.11979 6.60417 5 6.25 5C5.89583 5 5.59896 5.11979 5.35938 5.35938C5.11979 5.59896 5 5.89583 5 6.25C5 6.60417 5.11979 6.90104 5.35938 7.14062C5.59896 7.38021 5.89583 7.5 6.25 7.5C6.60417 7.5 6.90104 7.38021 7.14062 7.14062ZM16.25 12.5C16.6042 12.5 16.901 12.3802 17.1406 12.1406C17.3802 11.901 17.5 11.6042 17.5 11.25C17.5 10.8958 17.3802 10.599 17.1406 10.3594C16.901 10.1198 16.6042 10 16.25 10H11.25C10.8958 10 10.599 10.1198 10.3594 10.3594C10.1198 10.599 10 10.8958 10 11.25C10 11.6042 10.1198 11.901 10.3594 12.1406C10.599 12.3802 10.8958 12.5 11.25 12.5H16.25ZM16.25 7.5C16.6042 7.5 16.901 7.38021 17.1406 7.14062C17.3802 6.90104 17.5 6.60417 17.5 6.25C17.5 5.89583 17.3802 5.59896 17.1406 5.35938C16.901 5.11979 16.6042 5 16.25 5H11.25C10.8958 5 10.599 5.11979 10.3594 5.35938C10.1198 5.59896 10 5.89583 10 6.25C10 6.60417 10.1198 6.90104 10.3594 7.14062C10.599 7.38021 10.8958 7.5 11.25 7.5H16.25Z" fill="black"/>
</svg>
