<svg xmlns="http://www.w3.org/2000/svg" width="25" height="28" viewBox="0 0 25 28" fill="none">
<path d="M0 5V2.5C0 1.8125 0.244792 1.22396 0.734375 0.734375C1.22396 0.244792 1.8125 0 2.5 0H5C5.35417 0 5.65104 0.119792 5.89062 0.359375C6.13021 0.598958 6.25 0.895833 6.25 1.25C6.25 1.60417 6.13021 1.90104 5.89062 2.14062C5.65104 2.38021 5.35417 2.5 5 2.5H2.5V5C2.5 5.35417 2.38021 5.65104 2.14062 5.89062C1.90104 6.13021 1.60417 6.25 1.25 6.25C0.895833 6.25 0.598958 6.13021 0.359375 5.89062C0.119792 5.65104 0 5.35417 0 5ZM22.5 5V2.5H20C19.6458 2.5 19.349 2.38021 19.1094 2.14062C18.8698 1.90104 18.75 1.60417 18.75 1.25C18.75 0.895833 18.8698 0.598958 19.1094 0.359375C19.349 0.119792 19.6458 0 20 0H22.5C23.1875 0 23.776 0.244792 24.2656 0.734375C24.7552 1.22396 25 1.8125 25 2.5V5C25 5.35417 24.8802 5.65104 24.6406 5.89062C24.401 6.13021 24.1042 6.25 23.75 6.25C23.3958 6.25 23.099 6.13021 22.8594 5.89062C22.6198 5.65104 22.5 5.35417 22.5 5ZM0 25V22.5C0 22.1458 0.119792 21.849 0.359375 21.6094C0.598958 21.3698 0.895833 21.25 1.25 21.25C1.60417 21.25 1.90104 21.3698 2.14062 21.6094C2.38021 21.849 2.5 22.1458 2.5 22.5V25H5C5.35417 25 5.65104 25.1198 5.89062 25.3594C6.13021 25.599 6.25 25.8958 6.25 26.25C6.25 26.6042 6.13021 26.901 5.89062 27.1406C5.65104 27.3802 5.35417 27.5 5 27.5H2.5C1.8125 27.5 1.22396 27.2552 0.734375 26.7656C0.244792 26.276 0 25.6875 0 25ZM22.5 27.5H20C19.6458 27.5 19.349 27.3802 19.1094 27.1406C18.8698 26.901 18.75 26.6042 18.75 26.25C18.75 25.8958 18.8698 25.599 19.1094 25.3594C19.349 25.1198 19.6458 25 20 25H22.5V22.5C22.5 22.1458 22.6198 21.849 22.8594 21.6094C23.099 21.3698 23.3958 21.25 23.75 21.25C24.1042 21.25 24.401 21.3698 24.6406 21.6094C24.8802 21.849 25 22.1458 25 22.5V25C25 25.6875 24.7552 26.276 24.2656 26.7656C23.776 27.2552 23.1875 27.5 22.5 27.5ZM6.25 21.25H18.75V6.25H6.25V21.25ZM6.25 23.75C5.5625 23.75 4.97396 23.5052 4.48438 23.0156C3.99479 22.526 3.75 21.9375 3.75 21.25V6.25C3.75 5.5625 3.99479 4.97396 4.48438 4.48438C4.97396 3.99479 5.5625 3.75 6.25 3.75H18.75C19.4375 3.75 20.026 3.99479 20.5156 4.48438C21.0052 4.97396 21.25 5.5625 21.25 6.25V21.25C21.25 21.9375 21.0052 22.526 20.5156 23.0156C20.026 23.5052 19.4375 23.75 18.75 23.75H6.25ZM10 11.25H15C15.3542 11.25 15.651 11.1302 15.8906 10.8906C16.1302 10.651 16.25 10.3542 16.25 10C16.25 9.64583 16.1302 9.34896 15.8906 9.10938C15.651 8.86979 15.3542 8.75 15 8.75H10C9.64583 8.75 9.34896 8.86979 9.10938 9.10938C8.86979 9.34896 8.75 9.64583 8.75 10C8.75 10.3542 8.86979 10.651 9.10938 10.8906C9.34896 11.1302 9.64583 11.25 10 11.25ZM10 15H15C15.3542 15 15.651 14.8802 15.8906 14.6406C16.1302 14.401 16.25 14.1042 16.25 13.75C16.25 13.3958 16.1302 13.099 15.8906 12.8594C15.651 12.6198 15.3542 12.5 15 12.5H10C9.64583 12.5 9.34896 12.6198 9.10938 12.8594C8.86979 13.099 8.75 13.3958 8.75 13.75C8.75 14.1042 8.86979 14.401 9.10938 14.6406C9.34896 14.8802 9.64583 15 10 15ZM10 18.75H15C15.3542 18.75 15.651 18.6302 15.8906 18.3906C16.1302 18.151 16.25 17.8542 16.25 17.5C16.25 17.1458 16.1302 16.849 15.8906 16.6094C15.651 16.3698 15.3542 16.25 15 16.25H10C9.64583 16.25 9.34896 16.3698 9.10938 16.6094C8.86979 16.849 8.75 17.1458 8.75 17.5C8.75 17.8542 8.86979 18.151 9.10938 18.3906C9.34896 18.6302 9.64583 18.75 10 18.75Z" fill="black"/>
</svg>
