<svg xmlns="http://www.w3.org/2000/svg" width="25" height="20" viewBox="0 0 25 20" fill="none">
<path d="M17.5 20C17.1458 20 16.849 19.8802 16.6094 19.6406C16.3698 19.401 16.25 19.1042 16.25 18.75V12.5C16.25 12.1458 16.3698 11.849 16.6094 11.6094C16.849 11.3698 17.1458 11.25 17.5 11.25H23.75C24.1042 11.25 24.401 11.3698 24.6406 11.6094C24.8802 11.849 25 12.1458 25 12.5V18.75C25 19.1042 24.8802 19.401 24.6406 19.6406C24.401 19.8802 24.1042 20 23.75 20H17.5ZM12.5 8.75C12.1458 8.75 11.849 8.63021 11.6094 8.39062C11.3698 8.15104 11.25 7.85417 11.25 7.5V1.25C11.25 0.895833 11.3698 0.598958 11.6094 0.359375C11.849 0.119792 12.1458 0 12.5 0H23.75C24.1042 0 24.401 0.119792 24.6406 0.359375C24.8802 0.598958 25 0.895833 25 1.25V7.5C25 7.85417 24.8802 8.15104 24.6406 8.39062C24.401 8.63021 24.1042 8.75 23.75 8.75H12.5ZM1.25 20C0.895833 20 0.598958 19.8802 0.359375 19.6406C0.119792 19.401 0 19.1042 0 18.75V12.5C0 12.1458 0.119792 11.849 0.359375 11.6094C0.598958 11.3698 0.895833 11.25 1.25 11.25H12.5C12.8542 11.25 13.151 11.3698 13.3906 11.6094C13.6302 11.849 13.75 12.1458 13.75 12.5V18.75C13.75 19.1042 13.6302 19.401 13.3906 19.6406C13.151 19.8802 12.8542 20 12.5 20H1.25ZM1.25 8.75C0.895833 8.75 0.598958 8.63021 0.359375 8.39062C0.119792 8.15104 0 7.85417 0 7.5V1.25C0 0.895833 0.119792 0.598958 0.359375 0.359375C0.598958 0.119792 0.895833 0 1.25 0H7.5C7.85417 0 8.15104 0.119792 8.39062 0.359375C8.63021 0.598958 8.75 0.895833 8.75 1.25V7.5C8.75 7.85417 8.63021 8.15104 8.39062 8.39062C8.15104 8.63021 7.85417 8.75 7.5 8.75H1.25ZM13.75 6.25H22.5V2.5H13.75V6.25ZM2.5 17.5H11.25V13.75H2.5V17.5ZM18.75 17.5H22.5V13.75H18.75V17.5ZM2.5 6.25H6.25V2.5H2.5V6.25Z" fill="black"/>
</svg>
