<svg xmlns="http://www.w3.org/2000/svg" width="30" height="30" viewBox="0 0 30 30" fill="none">
<path d="M6.98438 26.7656C6.49479 26.276 6.25 25.6875 6.25 25C6.25 24.3125 6.49479 23.724 6.98438 23.2344C7.47396 22.7448 8.0625 22.5 8.75 22.5C9.4375 22.5 10.026 22.7448 10.5156 23.2344C11.0052 23.724 11.25 24.3125 11.25 25C11.25 25.6875 11.0052 26.276 10.5156 26.7656C10.026 27.2552 9.4375 27.5 8.75 27.5C8.0625 27.5 7.47396 27.2552 6.98438 26.7656ZM19.4844 26.7656C18.9948 26.276 18.75 25.6875 18.75 25C18.75 24.3125 18.9948 23.724 19.4844 23.2344C19.974 22.7448 20.5625 22.5 21.25 22.5C21.9375 22.5 22.526 22.7448 23.0156 23.2344C23.5052 23.724 23.75 24.3125 23.75 25C23.75 25.6875 23.5052 26.276 23.0156 26.7656C22.526 27.2552 21.9375 27.5 21.25 27.5C20.5625 27.5 19.974 27.2552 19.4844 26.7656ZM3.75 5H2.5C2.14583 5 1.84896 4.88021 1.60938 4.64062C1.36979 4.40104 1.25 4.10417 1.25 3.75C1.25 3.39583 1.36979 3.09896 1.60938 2.85938C1.84896 2.61979 2.14583 2.5 2.5 2.5H4.5625C4.79167 2.5 5.01042 2.5625 5.21875 2.6875C5.42708 2.8125 5.58333 2.98958 5.6875 3.21875L10.6562 13.75H19.4062L23.9375 5.625C24.0417 5.41667 24.1875 5.26042 24.375 5.15625C24.5625 5.05208 24.7708 5 25 5C25.4792 5 25.8385 5.20312 26.0781 5.60938C26.3177 6.01562 26.3229 6.42708 26.0938 6.84375L21.625 14.9375C21.3958 15.3542 21.0885 15.6771 20.7031 15.9062C20.3177 16.1354 19.8958 16.25 19.4375 16.25H10.125L8.75 18.75H22.5C22.8542 18.75 23.151 18.8698 23.3906 19.1094C23.6302 19.349 23.75 19.6458 23.75 20C23.75 20.3542 23.6302 20.651 23.3906 20.8906C23.151 21.1302 22.8542 21.25 22.5 21.25H8.75C7.8125 21.25 7.09896 20.8438 6.60938 20.0312C6.11979 19.2188 6.10417 18.3958 6.5625 17.5625L8.25 14.5L3.75 5ZM15.2188 8.75H11.25C10.8958 8.75 10.599 8.63021 10.3594 8.39062C10.1198 8.15104 10 7.85417 10 7.5C10 7.14583 10.1198 6.84896 10.3594 6.60938C10.599 6.36979 10.8958 6.25 11.25 6.25H15.2188L14.0938 5.125C13.8438 4.875 13.724 4.58333 13.7344 4.25C13.7448 3.91667 13.875 3.625 14.125 3.375C14.375 3.14583 14.6667 3.02604 15 3.01562C15.3333 3.00521 15.625 3.125 15.875 3.375L19.125 6.625C19.375 6.875 19.5 7.16667 19.5 7.5C19.5 7.83333 19.375 8.125 19.125 8.375L15.875 11.625C15.6458 11.8542 15.3594 11.974 15.0156 11.9844C14.6719 11.9948 14.375 11.875 14.125 11.625C13.8958 11.3958 13.7812 11.1042 13.7812 10.75C13.7812 10.3958 13.8958 10.1042 14.125 9.875L15.2188 8.75Z" fill="black"/>
</svg>
