<svg preserveAspectRatio="none" width="100%" height="100%" overflow="visible" style="display: block;" viewBox="0 0 30 30" fill="none" xmlns="http://www.w3.org/2000/svg">
<g id="Frame">
<path id="Vector" d="M20.1875 16.3125L17.5 20.625C17.2708 20.9792 16.9531 21.125 16.5469 21.0625C16.1406 21 15.8854 20.7604 15.7813 20.3438L14.9063 16.8438L6.375 25.375C6.14583 25.6042 5.85937 25.724 5.51562 25.7344C5.17187 25.7448 4.875 25.625 4.625 25.375C4.39583 25.1458 4.28125 24.8542 4.28125 24.5C4.28125 24.1458 4.39583 23.8542 4.625 23.625L13.1563 15.0625L9.65625 14.1875C9.23958 14.0833 9 13.8281 8.9375 13.4219C8.875 13.0156 9.02083 12.6979 9.375 12.4688L13.6875 9.8125L13.3125 4.71875C13.2708 4.30208 13.4375 4 13.8125 3.8125C14.1875 3.625 14.5313 3.66667 14.8438 3.9375L18.75 7.21875L23.4688 5.3125C23.8646 5.14583 24.2083 5.20833 24.5 5.5C24.7917 5.79167 24.8542 6.13542 24.6875 6.53125L22.7813 11.25L26.0625 15.125C26.3333 15.4375 26.375 15.7813 26.1875 16.1563C26 16.5313 25.6979 16.6979 25.2813 16.6563L20.1875 16.3125ZM4.1875 7.9375C4.0625 7.8125 4 7.66667 4 7.5C4 7.33333 4.0625 7.1875 4.1875 7.0625L5.8125 5.4375C5.9375 5.3125 6.08333 5.25 6.25 5.25C6.41667 5.25 6.5625 5.3125 6.6875 5.4375L8.3125 7.0625C8.4375 7.1875 8.5 7.33333 8.5 7.5C8.5 7.66667 8.4375 7.8125 8.3125 7.9375L6.6875 9.5625C6.5625 9.6875 6.41667 9.75 6.25 9.75C6.08333 9.75 5.9375 9.6875 5.8125 9.5625L4.1875 7.9375ZM17.3438 16.1563L18.8438 13.6875L21.75 13.9063L19.875 11.6875L20.9688 9L18.2813 10.0938L16.0625 8.25L16.2813 11.125L13.8125 12.6563L16.625 13.3438L17.3438 16.1563ZM22.0625 25.8125L20.4375 24.1875C20.3125 24.0625 20.25 23.9167 20.25 23.75C20.25 23.5833 20.3125 23.4375 20.4375 23.3125L22.0625 21.6875C22.1875 21.5625 22.3333 21.5 22.5 21.5C22.6667 21.5 22.8125 21.5625 22.9375 21.6875L24.5625 23.3125C24.6875 23.4375 24.75 23.5833 24.75 23.75C24.75 23.9167 24.6875 24.0625 24.5625 24.1875L22.9375 25.8125C22.8125 25.9375 22.6667 26 22.5 26C22.3333 26 22.1875 25.9375 22.0625 25.8125Z" fill="var(--fill-0, white)"/>
</g>
</svg>
