<svg preserveAspectRatio="none" width="100%" height="100%" overflow="visible" style="display: block;" viewBox="0 0 30 30" fill="none" xmlns="http://www.w3.org/2000/svg">
<g id="Frame" clip-path="url(#clip0_0_77)">
<path id="Vector" d="M14.9999 27.6275L12.1041 29.8189C11.791 30.0537 11.4779 30.0602 11.1649 29.8384C10.8518 29.6167 10.7605 29.3232 10.891 28.958L12.0258 25.3578L9.16914 23.3229C8.85608 23.1142 8.76477 22.8272 8.89521 22.462C9.02565 22.0968 9.27349 21.9141 9.63873 21.9141H13.1215L14.2172 18.314L8.66042 15.0268C8.19083 14.7399 7.82559 14.3616 7.56471 13.892C7.30383 13.4224 7.17339 12.8876 7.17339 12.2876V3.13059C7.17339 2.26968 7.47992 1.53268 8.093 0.919611C8.70607 0.306537 9.44307 0 10.304 0H19.6957C20.5567 0 21.2937 0.306537 21.9067 0.919611C22.5198 1.53268 22.8263 2.26968 22.8263 3.13059V12.2876C22.8263 12.8876 22.6959 13.4224 22.435 13.892C22.1741 14.3616 21.8089 14.7399 21.3393 15.0268L15.7825 18.314L16.8782 21.9141H20.361C20.7262 21.9141 20.9741 22.0968 21.1045 22.462C21.235 22.8272 21.1436 23.1142 20.8306 23.3229L17.9739 25.3578L19.1088 28.958C19.2392 29.3232 19.1479 29.6167 18.8348 29.8384C18.5218 30.0602 18.2087 30.0537 17.8957 29.8189L14.9999 27.6275ZM10.304 3.13059V12.2876L13.4346 14.1659V3.13059H10.304ZM19.6957 3.13059H16.5652V14.1659L19.6957 12.2876V3.13059Z" fill="var(--fill-0, white)"/>
</g>
<defs>
<clipPath id="clip0_0_77">
<rect width="30" height="30" fill="white"/>
</clipPath>
</defs>
</svg>
