<svg preserveAspectRatio="none" width="100%" height="100%" overflow="visible" style="display: block;" viewBox="0 0 30 30" fill="none" xmlns="http://www.w3.org/2000/svg">
<g id="Frame">
<path id="Vector" d="M5 13.75C4.3125 13.75 3.72396 13.5052 3.23437 13.0156C2.74479 12.526 2.5 11.9375 2.5 11.25V7.5C2.5 6.8125 2.74479 6.22396 3.23437 5.73438C3.72396 5.24479 4.3125 5 5 5H15C15.3542 5 15.651 5.11979 15.8906 5.35938C16.1302 5.59896 16.25 5.89583 16.25 6.25V12.5C16.25 12.8542 16.1302 13.151 15.8906 13.3906C15.651 13.6302 15.3542 13.75 15 13.75H5ZM5 11.25H13.75V7.5H5V11.25ZM5 25C4.3125 25 3.72396 24.7552 3.23437 24.2656C2.74479 23.776 2.5 23.1875 2.5 22.5V18.75C2.5 18.0625 2.74479 17.474 3.23437 16.9844C3.72396 16.4948 4.3125 16.25 5 16.25H17.5C17.8542 16.25 18.151 16.3698 18.3906 16.6094C18.6302 16.849 18.75 17.1458 18.75 17.5V23.75C18.75 24.1042 18.6302 24.401 18.3906 24.6406C18.151 24.8802 17.8542 25 17.5 25H5ZM5 22.5H16.25V18.75H5V22.5ZM21.25 13.75H20C19.6458 13.75 19.349 13.6302 19.1094 13.3906C18.8698 13.151 18.75 12.8542 18.75 12.5V6.25C18.75 5.89583 18.8698 5.59896 19.1094 5.35938C19.349 5.11979 19.6458 5 20 5H25.6562C26.0937 5 26.4375 5.18229 26.6875 5.54688C26.9375 5.91146 26.9792 6.30208 26.8125 6.71875L25 11.25H25.5625C26.0208 11.25 26.3646 11.4427 26.5937 11.8281C26.8229 12.2135 26.8542 12.6146 26.6875 13.0312L22.4375 24.5625C22.375 24.7292 22.2812 24.8438 22.1562 24.9062C22.0312 24.9688 21.8958 24.9792 21.75 24.9375C21.6042 24.8958 21.4844 24.8229 21.3906 24.7188C21.2969 24.6146 21.25 24.4792 21.25 24.3125V13.75ZM7.54687 8.70312C7.36979 8.52604 7.14583 8.4375 6.875 8.4375C6.60417 8.4375 6.38021 8.52604 6.20312 8.70312C6.02604 8.88021 5.9375 9.10417 5.9375 9.375C5.9375 9.64583 6.02604 9.86979 6.20312 10.0469C6.38021 10.224 6.60417 10.3125 6.875 10.3125C7.14583 10.3125 7.36979 10.224 7.54687 10.0469C7.72396 9.86979 7.8125 9.64583 7.8125 9.375C7.8125 9.10417 7.72396 8.88021 7.54687 8.70312ZM7.54687 21.2969C7.72396 21.1198 7.8125 20.8958 7.8125 20.625C7.8125 20.3542 7.72396 20.1302 7.54687 19.9531C7.36979 19.776 7.14583 19.6875 6.875 19.6875C6.60417 19.6875 6.38021 19.776 6.20312 19.9531C6.02604 20.1302 5.9375 20.3542 5.9375 20.625C5.9375 20.8958 6.02604 21.1198 6.20312 21.2969C6.38021 21.474 6.60417 21.5625 6.875 21.5625C7.14583 21.5625 7.36979 21.474 7.54687 21.2969Z" fill="var(--fill-0, white)"/>
</g>
</svg>
