<svg preserveAspectRatio="none" width="100%" height="100%" overflow="visible" style="display: block;" viewBox="0 0 100.046 14.5595" fill="none" xmlns="http://www.w3.org/2000/svg">
<g id="Group">
<path id="Vector" d="M99.795 6.65782L97.0686 6.82956C97.0162 6.59073 96.9223 6.38007 96.764 6.19491C96.6057 6.00975 96.4071 5.85142 96.1548 5.74542C95.9039 5.62601 95.6127 5.57368 95.2679 5.57368C94.805 5.57368 94.4213 5.66626 94.1033 5.86484C93.7853 6.05 93.6269 6.31433 93.6269 6.63233C93.6269 6.88324 93.7329 7.10865 93.9315 7.2804C94.1435 7.45214 94.487 7.59839 94.9902 7.70439L96.9357 8.10156C97.9809 8.31355 98.7619 8.65705 99.2784 9.13337C99.795 9.6097 100.046 10.2323 100.046 11.0132C100.046 11.7149 99.8339 12.3362 99.4233 12.8661C99.0128 13.3961 98.4439 13.8188 97.7287 14.11C97.0135 14.4011 96.1937 14.5474 95.2532 14.5474C93.8242 14.5474 92.6984 14.2562 91.8518 13.6605C91.0186 13.0647 90.5154 12.2449 90.3691 11.2252L93.3076 11.0669C93.4002 11.5043 93.6122 11.8343 93.9557 12.0598C94.2992 12.2852 94.7366 12.3912 95.2666 12.3912C95.7966 12.3912 96.2058 12.2852 96.5238 12.0866C96.8418 11.8746 97.0135 11.6237 97.0135 11.2923C97.0135 11.0279 96.8941 10.8025 96.67 10.6308C96.4446 10.459 96.1011 10.3128 95.6382 10.2202L93.7718 9.84987C92.7266 9.63787 91.9457 9.28096 91.4291 8.75097C90.926 8.23439 90.6617 7.5729 90.6617 6.76516C90.6617 6.07683 90.8468 5.4811 91.2171 4.97794C91.6009 4.47477 92.1309 4.09103 92.8058 3.8267C93.4941 3.56237 94.2884 3.41612 95.2142 3.41612C96.5775 3.41612 97.6361 3.70729 98.417 4.27619C99.1979 4.88535 99.6608 5.66626 99.7937 6.65916L99.795 6.65782Z" fill="var(--fill-0, #F3FE00)"/>
<path id="Vector_2" d="M84.7444 14.5595C83.6321 14.5595 82.6794 14.3341 81.8851 13.8846C81.0908 13.4351 80.4816 12.7857 80.0455 11.9659C79.6215 11.1326 79.3975 10.1532 79.3975 9.014C79.3975 7.87485 79.6095 6.93562 80.0455 6.10238C80.4695 5.26915 81.0773 4.61973 81.8582 4.14341C82.6392 3.6805 83.565 3.44167 84.6115 3.44167C85.3267 3.44167 85.9882 3.56108 86.5974 3.78516C87.2199 4.01057 87.7486 4.34065 88.2115 4.8049C88.6744 5.25439 89.0327 5.82464 89.2836 6.51162C89.5345 7.18652 89.6673 7.99426 89.6673 8.90666V9.72782H80.5876V7.87485H86.8617C86.8617 7.45085 86.7691 7.06711 86.5839 6.73703C86.3988 6.40562 86.1344 6.14129 85.803 5.95613C85.4716 5.77096 85.1013 5.66497 84.6652 5.66497C84.2291 5.66497 83.8052 5.77096 83.4603 5.98296C83.1168 6.19496 82.8377 6.4727 82.6526 6.8162C82.454 7.15969 82.3614 7.54477 82.348 7.96743V9.72782C82.348 10.2578 82.4406 10.7207 82.6392 11.1045C82.8377 11.4882 83.1155 11.7928 83.4858 12.0048C83.8561 12.2168 84.2801 12.3228 84.7833 12.3228C85.1147 12.3228 85.4179 12.2705 85.697 12.1765C85.9748 12.084 86.2136 11.9377 86.3988 11.7525C86.5974 11.5674 86.7423 11.342 86.8483 11.0642L89.6016 11.2494C89.4553 11.9109 89.1776 12.4932 88.7415 12.9829C88.3175 13.4727 87.762 13.8564 87.0737 14.1342C86.4122 14.4119 85.6313 14.5582 84.7444 14.5582V14.5595Z" fill="var(--fill-0, #F3FE00)"/>
<path id="Vector_3" d="M62.6572 14.3475V3.5879H65.5031V5.48113H65.6359C65.8613 4.84648 66.2317 4.35673 66.7603 3.98507C67.2769 3.61474 67.9116 3.44299 68.6401 3.44299C69.3687 3.44299 70.0034 3.62815 70.5199 3.99848C71.0365 4.36881 71.38 4.85855 71.5518 5.48113H71.6578C71.8832 4.85855 72.2803 4.36881 72.8492 3.99848C73.4316 3.62815 74.1065 3.44299 74.9008 3.44299C75.9071 3.44299 76.7135 3.76099 77.3495 4.39564C77.9842 5.0303 78.2888 5.93062 78.2888 7.09527V14.322H75.3114V7.67759C75.3114 7.08185 75.153 6.63236 74.835 6.32778C74.5171 6.0232 74.1199 5.87829 73.6436 5.87829C73.1015 5.87829 72.6775 6.05004 72.3729 6.39487C72.0683 6.73836 71.9234 7.18919 71.9234 7.74468V14.3099H69.0386V7.59977C69.0386 7.06977 68.8924 6.64712 68.5892 6.34254C68.2846 6.02454 67.9008 5.87963 67.4111 5.87963C67.0797 5.87963 66.7764 5.9588 66.5108 6.13054C66.2464 6.28887 66.0479 6.5277 65.8882 6.81887C65.7299 7.11003 65.6628 7.45352 65.6628 7.85068V14.3099H62.6586V14.3502L62.6572 14.3475Z" fill="var(--fill-0, #F3FE00)"/>
<path id="Vector_4" d="M60.7508 5.44087C60.4999 4.97797 60.1551 4.59423 59.7311 4.30306C59.2937 4.0119 58.8174 3.7999 58.2619 3.65499C57.7064 3.50874 57.1375 3.44299 56.5417 3.44299C55.6951 3.44299 54.9276 3.57583 54.2782 3.84015C53.6301 4.10448 53.1001 4.47481 52.6895 4.95248C52.279 5.4288 52.0146 5.99771 51.8684 6.64712L54.6217 6.87254C54.7277 6.51563 54.9397 6.22446 55.2563 5.98563C55.573 5.7468 55.997 5.62872 56.5404 5.62872C57.0838 5.62872 57.4407 5.76156 57.7185 5.99905C57.9962 6.24996 58.1425 6.58137 58.1425 7.03086V7.07112C58.1425 7.29653 58.0499 7.46828 57.8781 7.58769C57.7064 7.70711 57.4286 7.78627 57.0449 7.85202C56.6611 7.90435 56.158 7.97144 55.5354 8.03718C55.0054 8.08951 54.5036 8.17002 54.0139 8.30151C53.5375 8.42093 53.1135 8.60609 52.7298 8.857C52.346 9.10791 52.0549 9.42591 51.8295 9.83649C51.6041 10.2471 51.498 10.7502 51.498 11.3446C51.498 12.0464 51.6564 12.6421 51.961 13.1184C52.2655 13.5948 52.6895 13.9517 53.2316 14.1905C53.7737 14.4293 54.3828 14.5474 55.0712 14.5474C55.6012 14.5474 56.0775 14.4817 56.4746 14.322C56.8852 14.1757 57.2287 13.9785 57.5199 13.7263C57.7976 13.4753 58.0365 13.1708 58.2082 12.8394H58.2874V14.3354H61.1198V7.08319C61.1198 6.44854 61.0004 5.90513 60.7495 5.44222L60.7508 5.44087ZM58.1706 10.4966C58.1706 10.8804 58.0646 11.2118 57.8795 11.5164C57.6809 11.821 57.4166 12.0584 57.0851 12.2315C56.7417 12.4033 56.3566 12.4959 55.9205 12.4959C55.4844 12.4959 55.0873 12.3899 54.8082 12.1779C54.517 11.9659 54.3708 11.6613 54.3708 11.252C54.3708 10.9743 54.4365 10.7355 54.5828 10.5503C54.729 10.3651 54.9263 10.2068 55.1919 10.1008C55.4428 9.9814 55.7608 9.90223 56.1057 9.84991C56.264 9.82307 56.4491 9.79758 56.6477 9.77074C56.8463 9.73049 57.0449 9.70499 57.2435 9.66474C57.4421 9.62449 57.6272 9.58558 57.7855 9.53191C57.9439 9.47958 58.0767 9.42591 58.1693 9.36016V10.498L58.1706 10.4966Z" fill="var(--fill-0, #F3FE00)"/>
<path id="Vector_5" d="M45.041 3.5879H47.9258V5.46771H48.0318C48.2304 4.80622 48.5618 4.28965 49.0247 3.95957C49.4876 3.61608 50.0176 3.44299 50.6268 3.44299C50.773 3.44299 50.9314 3.45641 51.1165 3.46983C51.3017 3.48324 51.4479 3.51008 51.566 3.54899V6.19629C51.4198 6.15603 51.2346 6.11712 50.9837 6.09029C50.7328 6.06345 50.5074 6.03796 50.3088 6.03796C49.8714 6.03796 49.4755 6.13054 49.1307 6.32912C48.7872 6.51428 48.5215 6.77861 48.323 7.11003C48.1244 7.44144 48.0318 7.8386 48.0318 8.27467V14.3623H45.041V3.58924V3.5879Z" fill="var(--fill-0, #F3FE00)"/>
<path id="Vector_6" d="M42.2338 2.50373L44.009 0.00537109H34.5146V14.3448H37.547V8.4209H41.6045L43.3797 5.92254H37.547V2.50507H42.2352L42.2338 2.50373Z" fill="var(--fill-0, #F3FE00)"/>
<path id="Vector_7" d="M28.3655 14.5595C27.2532 14.5595 26.3005 14.3341 25.5062 13.8846C24.7119 13.4351 24.1027 12.7857 23.6666 11.9659C23.2426 11.1326 23.0186 10.1532 23.0186 9.014C23.0186 7.87485 23.2306 6.93562 23.6666 6.10238C24.0906 5.26915 24.6984 4.61973 25.4793 4.14341C26.2603 3.6805 27.1861 3.44167 28.2326 3.44167C28.9478 3.44167 29.6093 3.56108 30.2185 3.78516C30.841 4.01057 31.3697 4.34065 31.8326 4.8049C32.2955 5.25439 32.6537 5.82464 32.9047 6.51162C33.1556 7.18652 33.2884 7.99426 33.2884 8.90666V9.72782H24.2087V7.87485H30.4828C30.4828 7.45085 30.3902 7.06711 30.205 6.73703C30.0199 6.40696 29.7555 6.14129 29.4241 5.95613C29.0927 5.77096 28.7224 5.66497 28.2863 5.66497C27.8502 5.66497 27.4262 5.77096 27.0814 5.98296C26.7379 6.19496 26.4588 6.4727 26.2737 6.8162C26.0751 7.15969 25.9825 7.54477 25.9691 7.96743V9.72782C25.9691 10.2578 26.0617 10.7207 26.2603 11.1045C26.4588 11.4882 26.75 11.7928 27.1069 12.0048C27.4772 12.2168 27.9012 12.3228 28.4044 12.3228C28.7358 12.3228 29.039 12.2705 29.3181 12.1765C29.5959 12.084 29.8347 11.9377 30.0199 11.7525C30.2184 11.5674 30.3634 11.342 30.4694 11.0642L33.2227 11.2494C33.0764 11.9109 32.7987 12.4932 32.3626 12.9829C31.9386 13.4727 31.3831 13.8564 30.6948 14.1342C30.0467 14.4119 29.2524 14.5582 28.3655 14.5582V14.5595Z" fill="var(--fill-0, #F3FE00)"/>
<path id="Vector_8" d="M17.3792 14.5595C16.2668 14.5595 15.3142 14.3341 14.5199 13.8846C13.7255 13.4351 13.1164 12.7857 12.6803 11.9659C12.2563 11.1326 12.0322 10.1532 12.0322 9.014C12.0322 7.87485 12.2442 6.93562 12.6803 6.10238C13.1177 5.26915 13.7121 4.61973 14.493 4.14341C15.2739 3.6805 16.1997 3.44167 17.2463 3.44167C17.9615 3.44167 18.623 3.56108 19.2321 3.78516C19.8547 4.01057 20.3834 4.34065 20.8463 4.8049C21.3092 5.25439 21.6674 5.82464 21.9183 6.51162C22.1692 7.18652 22.3021 7.99426 22.3021 8.90666V9.72782H13.2224V7.87485H19.4964C19.4964 7.45085 19.4039 7.06711 19.2187 6.73703C19.0335 6.40696 18.7692 6.14129 18.4378 5.95613C18.1064 5.77096 17.7361 5.66497 17.3 5.66497C16.8639 5.66497 16.4399 5.77096 16.0951 5.98296C15.7516 6.19496 15.4725 6.4727 15.2873 6.8162C15.0888 7.15969 14.9962 7.54477 14.9828 7.96743V9.72782C14.9828 10.2578 15.0753 10.7207 15.2739 11.1045C15.4725 11.4882 15.7637 11.7928 16.1206 12.0048C16.4909 12.2168 16.9149 12.3228 17.4181 12.3228C17.7495 12.3228 18.0527 12.2705 18.3318 12.1765C18.6095 12.084 18.8484 11.9377 19.0335 11.7525C19.2321 11.5674 19.377 11.342 19.483 11.0642L22.2363 11.2494C22.0901 11.9109 21.8123 12.4932 21.3763 12.9829C20.9523 13.4727 20.3968 13.8564 19.7084 14.1342C19.047 14.4119 18.2661 14.5582 17.3792 14.5582V14.5595Z" fill="var(--fill-0, #F3FE00)"/>
<path id="Vector_9" d="M0.0134184 14.3475V12.5468L7.17306 2.50106H0V1.52588e-05H10.9716V1.80066L3.81195 11.8464H10.985V14.3475H0.0134184Z" fill="var(--fill-0, #F3FE00)"/>
</g>
</svg>
