<svg preserveAspectRatio="none" width="100%" height="100%" overflow="visible" style="display: block;" viewBox="0 0 22.5 22.5" fill="none" xmlns="http://www.w3.org/2000/svg">
<g id="Group">
<path id="Vector" d="M15.5141 3.45101C15.5034 3.46577 15.498 3.48321 15.498 3.50066C15.498 3.51944 15.5034 3.53688 15.5141 3.55164C15.5262 3.56506 15.541 3.57579 15.5584 3.58384L16.4561 3.90587C16.9472 4.08432 17.3913 4.36878 17.7616 4.73776C18.1319 5.1054 18.4164 5.55221 18.5921 6.04464L18.9155 6.93825C18.9209 6.95569 18.9316 6.9718 18.9464 6.98253C18.9625 6.99326 18.9799 6.99863 18.9987 6.99863C19.0175 6.99863 19.0363 6.99326 19.051 6.98253C19.0645 6.96911 19.0738 6.95435 19.0819 6.93825L19.4053 6.04464C19.5824 5.55355 19.8655 5.10675 20.2358 4.73776C20.6035 4.36609 21.0489 4.08164 21.5413 3.90587L22.439 3.58384C22.4564 3.57848 22.4725 3.5664 22.4833 3.55164C22.4953 3.53688 22.5007 3.51944 22.4994 3.50066C22.4994 3.48187 22.494 3.46308 22.4833 3.44833C22.4712 3.43491 22.4564 3.42418 22.439 3.41747L21.5413 3.0941C21.0516 2.91431 20.6061 2.62985 20.2358 2.26221C19.8655 1.89457 19.581 1.4491 19.4053 0.956677L19.0819 0.0603768C19.0765 0.0429339 19.0658 0.0268346 19.051 0.0161005C19.0363 0.00536639 19.0175 0 18.9987 0C18.9799 0 18.9611 0.00536639 18.9464 0.0161005C18.933 0.0281763 18.9222 0.0429339 18.9155 0.0603768L18.5921 0.959359C18.415 1.45044 18.1306 1.89591 17.7616 2.26489C17.394 2.63656 16.9485 2.92101 16.4561 3.09678L15.5584 3.42015C15.541 3.42552 15.5249 3.43625 15.5141 3.45101Z" fill="var(--fill-0, #F3FE00)"/>
<path id="Vector_2" d="M15.0004 7.50183H7.5V15.0023H15.0004V7.50183Z" fill="var(--fill-0, #F3FE00)"/>
<path id="Vector_3" d="M18.7498 18.7498H3.75022V3.75022H13.7504L16.2259 0H0V22.5H22.5V6.27005C22.5 6.27005 18.7498 8.76975 18.7498 8.75365V18.7498Z" fill="var(--fill-0, #F3FE00)"/>
</g>
</svg>
