<svg width="30" height="30" viewBox="0 0 30 30" fill="none" xmlns="http://www.w3.org/2000/svg">
<path d="M8 23L5.125 25.875C4.72917 26.2708 4.27604 26.3594 3.76562 26.1406C3.25521 25.9219 3 25.5312 3 24.9688V5.5C3 4.8125 3.24479 4.22396 3.73438 3.73438C4.22396 3.24479 4.8125 3 5.5 3H25.5C26.1875 3 26.776 3.24479 27.2656 3.73438C27.7552 4.22396 28 4.8125 28 5.5V20.5C28 21.1875 27.7552 21.776 27.2656 22.2656C26.776 22.7552 26.1875 23 25.5 23H8ZM6.9375 20.5H25.5V5.5H5.5V21.9062L6.9375 20.5ZM11.3906 13.8906C11.6302 13.651 11.75 13.3542 11.75 13C11.75 12.6458 11.6302 12.349 11.3906 12.1094C11.151 11.8698 10.8542 11.75 10.5 11.75C10.1458 11.75 9.84896 11.8698 9.60938 12.1094C9.36979 12.349 9.25 12.6458 9.25 13C9.25 13.3542 9.36979 13.651 9.60938 13.8906C9.84896 14.1302 10.1458 14.25 10.5 14.25C10.8542 14.25 11.151 14.1302 11.3906 13.8906ZM16.3906 13.8906C16.6302 13.651 16.75 13.3542 16.75 13C16.75 12.6458 16.6302 12.349 16.3906 12.1094C16.151 11.8698 15.8542 11.75 15.5 11.75C15.1458 11.75 14.849 11.8698 14.6094 12.1094C14.3698 12.349 14.25 12.6458 14.25 13C14.25 13.3542 14.3698 13.651 14.6094 13.8906C14.849 14.1302 15.1458 14.25 15.5 14.25C15.8542 14.25 16.151 14.1302 16.3906 13.8906ZM21.3906 13.8906C21.6302 13.651 21.75 13.3542 21.75 13C21.75 12.6458 21.6302 12.349 21.3906 12.1094C21.151 11.8698 20.8542 11.75 20.5 11.75C20.1458 11.75 19.849 11.8698 19.6094 12.1094C19.3698 12.349 19.25 12.6458 19.25 13C19.25 13.3542 19.3698 13.651 19.6094 13.8906C19.849 14.1302 20.1458 14.25 20.5 14.25C20.8542 14.25 21.151 14.1302 21.3906 13.8906Z" fill="black"/>
</svg>
