<svg width="40" height="40" viewBox="0 0 40 40" fill="none" xmlns="http://www.w3.org/2000/svg">
<mask id="path-1-inside-1_58578_50448" fill="white">
<path d="M0 10C0 4.47715 4.47715 0 10 0H30C35.5228 0 40 4.47715 40 10V30C40 35.5228 35.5228 40 30 40H10C4.47715 40 0 35.5228 0 30V10Z"/>
</mask>
<path d="M0 10C0 4.47715 4.47715 0 10 0H30C35.5228 0 40 4.47715 40 10V30C40 35.5228 35.5228 40 30 40H10C4.47715 40 0 35.5228 0 30V10Z" fill="#F3FE00" fill-opacity="0.1"/>
<path d="M10 0V0.8H30V0V-0.8H10V0ZM40 10H39.2V30H40H40.8V10H40ZM30 40V39.2H10V40V40.8H30V40ZM0 30H0.8V10H0H-0.8V30H0ZM10 40V39.2C4.91898 39.2 0.8 35.081 0.8 30H0H-0.8C-0.8 35.9647 4.03533 40.8 10 40.8V40ZM40 30H39.2C39.2 35.081 35.081 39.2 30 39.2V40V40.8C35.9647 40.8 40.8 35.9647 40.8 30H40ZM30 0V0.8C35.081 0.8 39.2 4.91898 39.2 10H40H40.8C40.8 4.03533 35.9647 -0.8 30 -0.8V0ZM10 0V-0.8C4.03533 -0.8 -0.8 4.03533 -0.8 10H0H0.8C0.8 4.91898 4.91898 0.8 10 0.8V0Z" fill="#373737" mask="url(#path-1-inside-1_58578_50448)"/>
<path d="M26.25 30C25.8958 30 25.599 29.8802 25.3594 29.6406C25.1198 29.401 25 29.1042 25 28.75V22.5C25 22.1458 25.1198 21.849 25.3594 21.6094C25.599 21.3698 25.8958 21.25 26.25 21.25H28.75C29.1042 21.25 29.401 21.3698 29.6406 21.6094C29.8802 21.849 30 22.1458 30 22.5V28.75C30 29.1042 29.8802 29.401 29.6406 29.6406C29.401 29.8802 29.1042 30 28.75 30H26.25ZM18.75 30C18.3958 30 18.099 29.8802 17.8594 29.6406C17.6198 29.401 17.5 29.1042 17.5 28.75V11.25C17.5 10.8958 17.6198 10.599 17.8594 10.3594C18.099 10.1198 18.3958 10 18.75 10H21.25C21.6042 10 21.901 10.1198 22.1406 10.3594C22.3802 10.599 22.5 10.8958 22.5 11.25V28.75C22.5 29.1042 22.3802 29.401 22.1406 29.6406C21.901 29.8802 21.6042 30 21.25 30H18.75ZM11.25 30C10.8958 30 10.599 29.8802 10.3594 29.6406C10.1198 29.401 10 29.1042 10 28.75V17.5C10 17.1458 10.1198 16.849 10.3594 16.6094C10.599 16.3698 10.8958 16.25 11.25 16.25H13.75C14.1042 16.25 14.401 16.3698 14.6406 16.6094C14.8802 16.849 15 17.1458 15 17.5V28.75C15 29.1042 14.8802 29.401 14.6406 29.6406C14.401 29.8802 14.1042 30 13.75 30H11.25Z" fill="#F3FE00"/>
</svg>
