<svg width="40" height="40" viewBox="0 0 40 40" fill="none" xmlns="http://www.w3.org/2000/svg">
<mask id="path-1-inside-1_58578_50524" fill="white">
<path d="M0 10C0 4.47715 4.47715 0 10 0H30C35.5228 0 40 4.47715 40 10V30C40 35.5228 35.5228 40 30 40H10C4.47715 40 0 35.5228 0 30V10Z"/>
</mask>
<path d="M0 10C0 4.47715 4.47715 0 10 0H30C35.5228 0 40 4.47715 40 10V30C40 35.5228 35.5228 40 30 40H10C4.47715 40 0 35.5228 0 30V10Z" fill="#F3FE00" fill-opacity="0.1"/>
<path d="M10 0V0.8H30V0V-0.8H10V0ZM40 10H39.2V30H40H40.8V10H40ZM30 40V39.2H10V40V40.8H30V40ZM0 30H0.8V10H0H-0.8V30H0ZM10 40V39.2C4.91898 39.2 0.8 35.081 0.8 30H0H-0.8C-0.8 35.9647 4.03533 40.8 10 40.8V40ZM40 30H39.2C39.2 35.081 35.081 39.2 30 39.2V40V40.8C35.9647 40.8 40.8 35.9647 40.8 30H40ZM30 0V0.8C35.081 0.8 39.2 4.91898 39.2 10H40H40.8C40.8 4.03533 35.9647 -0.8 30 -0.8V0ZM10 0V-0.8C4.03533 -0.8 -0.8 4.03533 -0.8 10H0H0.8C0.8 4.91898 4.91898 0.8 10 0.8V0Z" fill="#373737" mask="url(#path-1-inside-1_58578_50524)"/>
<path d="M14.2505 26.5625C13.3755 27.2917 12.464 27.625 11.5161 27.5625C10.5682 27.5 9.74005 27.1771 9.03172 26.5938C8.32339 26.0104 7.83901 25.2448 7.5786 24.2969C7.31818 23.349 7.49005 22.375 8.09422 21.375L10.438 17.5C9.91714 17.0417 9.50568 16.4896 9.2036 15.8438C8.90151 15.1979 8.75047 14.5 8.75047 13.75C8.75047 12.375 9.24005 11.1979 10.2192 10.2188C11.1984 9.23958 12.3755 8.75 13.7505 8.75C15.1255 8.75 16.3026 9.23958 17.2817 10.2188C18.2609 11.1979 18.7505 12.375 18.7505 13.75C18.7505 15.125 18.2609 16.3021 17.2817 17.2812C16.3026 18.2604 15.1255 18.75 13.7505 18.75C13.563 18.75 13.3755 18.7396 13.188 18.7188C13.0005 18.6979 12.8234 18.6667 12.6567 18.625L10.2505 22.6875C10.0213 23.0625 9.94839 23.4323 10.0317 23.7969C10.1151 24.1615 10.2921 24.4583 10.563 24.6875C10.8338 24.9167 11.1567 25.0469 11.5317 25.0781C11.9067 25.1094 12.2713 24.9792 12.6255 24.6875L25.7505 13.4062C26.6255 12.6771 27.5421 12.349 28.5005 12.4219C29.4588 12.4948 30.2921 12.8229 31.0005 13.4062C31.7088 13.9896 32.188 14.7552 32.438 15.7031C32.688 16.651 32.5109 17.625 31.9067 18.625L29.563 22.5C30.0838 22.9583 30.4953 23.5104 30.7973 24.1562C31.0994 24.8021 31.2505 25.5 31.2505 26.25C31.2505 27.625 30.7609 28.8021 29.7817 29.7812C28.8026 30.7604 27.6255 31.25 26.2505 31.25C24.8755 31.25 23.6984 30.7604 22.7192 29.7812C21.7401 28.8021 21.2505 27.625 21.2505 26.25C21.2505 24.875 21.7401 23.6979 22.7192 22.7188C23.6984 21.7396 24.8755 21.25 26.2505 21.25C26.438 21.25 26.6203 21.2604 26.7973 21.2812C26.9744 21.3021 27.1463 21.3333 27.313 21.375L29.7505 17.3125C29.9796 16.9375 30.0526 16.5677 29.9692 16.2031C29.8859 15.8385 29.7088 15.5417 29.438 15.3125C29.1671 15.0833 28.8442 14.9531 28.4692 14.9219C28.0942 14.8906 27.7296 15.0208 27.3755 15.3125L14.2505 26.5625ZM15.5161 15.5156C16.0057 15.026 16.2505 14.4375 16.2505 13.75C16.2505 13.0625 16.0057 12.474 15.5161 11.9844C15.0265 11.4948 14.438 11.25 13.7505 11.25C13.063 11.25 12.4744 11.4948 11.9848 11.9844C11.4953 12.474 11.2505 13.0625 11.2505 13.75C11.2505 14.4375 11.4953 15.026 11.9848 15.5156C12.4744 16.0052 13.063 16.25 13.7505 16.25C14.438 16.25 15.0265 16.0052 15.5161 15.5156ZM28.0161 28.0156C28.5057 27.526 28.7505 26.9375 28.7505 26.25C28.7505 25.5625 28.5057 24.974 28.0161 24.4844C27.5265 23.9948 26.938 23.75 26.2505 23.75C25.563 23.75 24.9744 23.9948 24.4848 24.4844C23.9953 24.974 23.7505 25.5625 23.7505 26.25C23.7505 26.9375 23.9953 27.526 24.4848 28.0156C24.9744 28.5052 25.563 28.75 26.2505 28.75C26.938 28.75 27.5265 28.5052 28.0161 28.0156Z" fill="#F3FE00"/>
</svg>
