<svg width="40" height="40" viewBox="0 0 40 40" fill="none" xmlns="http://www.w3.org/2000/svg">
<mask id="path-1-inside-1_58582_50807" fill="white">
<path d="M0 10C0 4.47715 4.47715 0 10 0H30C35.5228 0 40 4.47715 40 10V30C40 35.5228 35.5228 40 30 40H10C4.47715 40 0 35.5228 0 30V10Z"/>
</mask>
<path d="M0 10C0 4.47715 4.47715 0 10 0H30C35.5228 0 40 4.47715 40 10V30C40 35.5228 35.5228 40 30 40H10C4.47715 40 0 35.5228 0 30V10Z" fill="#F3FE00" fill-opacity="0.1"/>
<path d="M10 0V0.8H30V0V-0.8H10V0ZM40 10H39.2V30H40H40.8V10H40ZM30 40V39.2H10V40V40.8H30V40ZM0 30H0.8V10H0H-0.8V30H0ZM10 40V39.2C4.91898 39.2 0.8 35.081 0.8 30H0H-0.8C-0.8 35.9647 4.03533 40.8 10 40.8V40ZM40 30H39.2C39.2 35.081 35.081 39.2 30 39.2V40V40.8C35.9647 40.8 40.8 35.9647 40.8 30H40ZM30 0V0.8C35.081 0.8 39.2 4.91898 39.2 10H40H40.8C40.8 4.03533 35.9647 -0.8 30 -0.8V0ZM10 0V-0.8C4.03533 -0.8 -0.8 4.03533 -0.8 10H0H0.8C0.8 4.91898 4.91898 0.8 10 0.8V0Z" fill="#373737" mask="url(#path-1-inside-1_58582_50807)"/>
<path d="M8.78125 31.2188C7.92708 30.3646 7.5 29.3333 7.5 28.125C7.5 26.9167 7.92708 25.8854 8.78125 25.0312C9.63542 24.1771 10.6667 23.75 11.875 23.75C12.25 23.75 12.6146 23.7969 12.9688 23.8906C13.3229 23.9844 13.6562 24.1146 13.9688 24.2812L18.75 19.5V16.0625C17.8333 15.7917 17.0833 15.276 16.5 14.5156C15.9167 13.7552 15.625 12.875 15.625 11.875C15.625 10.6667 16.0521 9.63542 16.9062 8.78125C17.7604 7.92708 18.7917 7.5 20 7.5C21.2083 7.5 22.2396 7.92708 23.0938 8.78125C23.9479 9.63542 24.375 10.6667 24.375 11.875C24.375 12.875 24.0833 13.7552 23.5 14.5156C22.9167 15.276 22.1667 15.7917 21.25 16.0625V19.5L26.0625 24.2812C26.375 24.1146 26.7031 23.9844 27.0469 23.8906C27.3906 23.7969 27.75 23.75 28.125 23.75C29.3333 23.75 30.3646 24.1771 31.2188 25.0312C32.0729 25.8854 32.5 26.9167 32.5 28.125C32.5 29.3333 32.0729 30.3646 31.2188 31.2188C30.3646 32.0729 29.3333 32.5 28.125 32.5C26.9167 32.5 25.8854 32.0729 25.0312 31.2188C24.1771 30.3646 23.75 29.3333 23.75 28.125C23.75 27.75 23.7969 27.3854 23.8906 27.0312C23.9844 26.6771 24.1146 26.3438 24.2812 26.0312L20 21.75L15.7188 26.0312C15.8854 26.3438 16.0156 26.6771 16.1094 27.0312C16.2031 27.3854 16.25 27.75 16.25 28.125C16.25 29.3333 15.8229 30.3646 14.9688 31.2188C14.1146 32.0729 13.0833 32.5 11.875 32.5C10.6667 32.5 9.63542 32.0729 8.78125 31.2188ZM29.4531 29.4531C29.8177 29.0885 30 28.6458 30 28.125C30 27.6042 29.8177 27.1615 29.4531 26.7969C29.0885 26.4323 28.6458 26.25 28.125 26.25C27.6042 26.25 27.1615 26.4323 26.7969 26.7969C26.4323 27.1615 26.25 27.6042 26.25 28.125C26.25 28.6458 26.4323 29.0885 26.7969 29.4531C27.1615 29.8177 27.6042 30 28.125 30C28.6458 30 29.0885 29.8177 29.4531 29.4531ZM21.3281 13.2031C21.6927 12.8385 21.875 12.3958 21.875 11.875C21.875 11.3542 21.6927 10.9115 21.3281 10.5469C20.9635 10.1823 20.5208 10 20 10C19.4792 10 19.0365 10.1823 18.6719 10.5469C18.3073 10.9115 18.125 11.3542 18.125 11.875C18.125 12.3958 18.3073 12.8385 18.6719 13.2031C19.0365 13.5677 19.4792 13.75 20 13.75C20.5208 13.75 20.9635 13.5677 21.3281 13.2031ZM13.2031 29.4531C13.5677 29.0885 13.75 28.6458 13.75 28.125C13.75 27.6042 13.5677 27.1615 13.2031 26.7969C12.8385 26.4323 12.3958 26.25 11.875 26.25C11.3542 26.25 10.9115 26.4323 10.5469 26.7969C10.1823 27.1615 10 27.6042 10 28.125C10 28.6458 10.1823 29.0885 10.5469 29.4531C10.9115 29.8177 11.3542 30 11.875 30C12.3958 30 12.8385 29.8177 13.2031 29.4531Z" fill="#F3FE00"/>
</svg>
