<svg width="40" height="40" viewBox="0 0 40 40" fill="none" xmlns="http://www.w3.org/2000/svg">
<mask id="path-1-inside-1_58552_49756" fill="white">
<path d="M0 10C0 4.47715 4.47715 0 10 0H30C35.5228 0 40 4.47715 40 10V30C40 35.5228 35.5228 40 30 40H10C4.47715 40 0 35.5228 0 30V10Z"/>
</mask>
<path d="M10 0V0.8H30V0V-0.8H10V0ZM40 10H39.2V30H40H40.8V10H40ZM30 40V39.2H10V40V40.8H30V40ZM0 30H0.8V10H0H-0.8V30H0ZM10 40V39.2C4.91898 39.2 0.8 35.081 0.8 30H0H-0.8C-0.8 35.9647 4.03533 40.8 10 40.8V40ZM40 30H39.2C39.2 35.081 35.081 39.2 30 39.2V40V40.8C35.9647 40.8 40.8 35.9647 40.8 30H40ZM30 0V0.8C35.081 0.8 39.2 4.91898 39.2 10H40H40.8C40.8 4.03533 35.9647 -0.8 30 -0.8V0ZM10 0V-0.8C4.03533 -0.8 -0.8 4.03533 -0.8 10H0H0.8C0.8 4.91898 4.91898 0.8 10 0.8V0Z" fill="#373737" mask="url(#path-1-inside-1_58552_49756)"/>
<path d="M12.5 32.5C11.8125 32.5 11.224 32.2552 10.7344 31.7656C10.2448 31.276 10 30.6875 10 30V27.5C10 27.1458 10.1198 26.849 10.3594 26.6094C10.599 26.3698 10.8958 26.25 11.25 26.25C11.6042 26.25 11.901 26.3698 12.1406 26.6094C12.3802 26.849 12.5 27.1458 12.5 27.5V30H27.5V27.5C27.5 27.1458 27.6198 26.849 27.8594 26.6094C28.099 26.3698 28.3958 26.25 28.75 26.25C29.1042 26.25 29.401 26.3698 29.6406 26.6094C29.8802 26.849 30 27.1458 30 27.5V30C30 30.6875 29.7552 31.276 29.2656 31.7656C28.776 32.2552 28.1875 32.5 27.5 32.5H12.5ZM10 10C10 9.3125 10.2448 8.72396 10.7344 8.23438C11.224 7.74479 11.8125 7.5 12.5 7.5H21.4688C21.8021 7.5 22.1198 7.5625 22.4219 7.6875C22.724 7.8125 22.9896 7.98958 23.2188 8.21875L29.2812 14.2812C29.5104 14.5104 29.6875 14.776 29.8125 15.0781C29.9375 15.3802 30 15.6979 30 16.0312V17.5C30 17.8542 29.8802 18.151 29.6406 18.3906C29.401 18.6302 29.1042 18.75 28.75 18.75C28.3958 18.75 28.099 18.6302 27.8594 18.3906C27.6198 18.151 27.5 17.8542 27.5 17.5V16.25H22.5C22.1458 16.25 21.849 16.1302 21.6094 15.8906C21.3698 15.651 21.25 15.3542 21.25 15V10H12.5V17.5C12.5 17.8542 12.3802 18.151 12.1406 18.3906C11.901 18.6302 11.6042 18.75 11.25 18.75C10.8958 18.75 10.599 18.6302 10.3594 18.3906C10.1198 18.151 10 17.8542 10 17.5V10ZM32.5 23.75H7.5C7.14583 23.75 6.84896 23.6302 6.60938 23.3906C6.36979 23.151 6.25 22.8542 6.25 22.5C6.25 22.1458 6.36979 21.849 6.60938 21.6094C6.84896 21.3698 7.14583 21.25 7.5 21.25H32.5C32.8542 21.25 33.151 21.3698 33.3906 21.6094C33.6302 21.849 33.75 22.1458 33.75 22.5C33.75 22.8542 33.6302 23.151 33.3906 23.3906C33.151 23.6302 32.8542 23.75 32.5 23.75Z" fill="white"/>
</svg>
